
<svg xmlns="http://www.w3.org/2000/svg" width="917.36" height="614.315"><defs><style>  
      
      .animateMe {
         stroke-dasharray: 580;
         stroke-dashoffset: 10;
         -webkit-animation: dash 30s linear forwards;
         -moz-animation: dash 30s linear forwards;
         -o-animation: dash 30s linear forwards;
         animation: dash 30s linear forwards;
         animation-iteration-count: infinite;
         opacity: 0.5;
      }

      @-webkit-keyframes dash {
         0% {
            stroke-dashoffset: 3080;
         }
         90% {
            stroke-dashoffset: 0;
            
         }
         100% {
            
            opacity: 1;
         }
      }
      @-moz-keyframes dash {
         0% {
            stroke-dashoffset: 3080;
         }
         90% {
            stroke-dashoffset: 0;
            
         }
         100% {
            
            opacity: 1;
         }
      }
      @-o-keyframes dash {
         0% {
            stroke-dashoffset: 3080;
         }
         90% {
            stroke-dashoffset: 0;
            
         }
         100% {
            
            opacity: 1;
         }
      }
      @-keyframes dash {
         0% {
            stroke-dashoffset: 3080;
         }
         90% {
            stroke-dashoffset: 0;
            
         }
         100% {
            
            opacity: 1;
         }
      }

   </style></defs><style type="text/css">  
   .animateMe{
      fill: none !important;
      fill-rule:evenodd !important;
      clip-rule:evenodd !important;
      fill:none !important;
      stroke:#ffd3cf !important;
      stroke-width:2 !important;
      stroke-miterlimit:1 !important;
   }
</style><g transform="translate(-192.74846 -445.20454)matrix(0.36505231 0.12980982 -0.12980982 0.36505231 315.75252 335.72224)"><path class="animateMe" d="m843 1374 0-108-161 0-161 0 0 3 0 3-116 0-116 0 0-3 0-3-82 0c-57 0-82 0-83 1-1 1-3 1-5 1-4 0-4-1-4-4 0-2 0-4 1-4 2-2 2-991 0-992-1-1-1-3-1-4l0-3 69 0 69 0 0-2 0-2 62 0 62 0 0 2 0 2 122 0 122 0 0-2 0-2 62 0 62 0 0 2 0 2 71 0 71 0 0 2 0 2 45 0 45 0 0-2 0-2 92 0 92 0 0-2 0-2 62 0 62 0 0 2 0 2 490 0 490 0 0 3c0 2 0 4-1 4-1 1-1 49-1 164l0 163 3 0 3 0 0 62 0 62-3 0-3 0 0 162c0 114 0 163 1 163 1 1 1 3 1 4l0 3-55 0c-47 0-56 0-57-2-1-1-37-1-285-1-252 0-284 0-284 2 0 1-7 2-54 2l-54 0 0 108 0 108-4 0c-2 0-4 0-5-1-1-1-12-1-32-1l-31 0 0 108 0 108-282 0-283 0 0-108zm65 100 0-4-25 0-25 0 0 5 0 5 25 0 25 0 0-4zm156-2 0-6 164 0 164 0 0-100 0-100-22 0-22 0 0 3 0 3-116 0-116 0 0-3 0-3-35 0c-31 0-35 0-35-1 0-1-6-2-52-2-46 0-51 0-52 2 0 1-5 2-43 1l-42 0 0 100 0 100 33 0 33 0 0 6 0 6 69 0 69 0 0-6zm328 2 0-4-156 0-156 0 0 5 0 5 157 0 157 0 0-4zm-475-4c-1 0-2 0-2 0 0 0 0 1 1 1 1 0 1 0 1-1zm-62-104 0-99-4 0-4 0 0 100 0 100 4 0 4 0 0-99zm549 0 0-99-4 0-4 0 0 100 0 100 4 0 4 0 0-99zm-887-98c0-1-1-2-4-1-3 0-4 0-4-1 0-1-1-2-2-2-1 0-2-1-2-1-1-1-7-1-48-1l-47 0-3 4c-3 4-6 4-6 1 0-1-1-1-2-1-1 0-2-1-2-1-1-1-7-1-48-1l-47 0-3 3c-3 3-4 3-6 3-2 0-3 0-3 1 0 1 9 2 114 2 104 0 114 0 114-2zm829 0c0-1-1-2-4-1-3 0-4 0-4-1 0-1-1-2-2-3-2-2-5-2-49-2l-47 0-3 4c-3 4-6 4-6 1 0-1-1-1-2-1-1 0-2-1-2-1-1-1-7-1-48-1-41 0-47 0-48 2 0 1-1 2-2 2-1 0-2 1-2 2 0 2-1 2-4 1-3 0-4 0-4 1 0 1 9 2 114 2 104 0 114 0 114-2zm130-9c0-1 0 0 0 2 0 2 0 2 0 1 0-1 0-2 0-3zm-1183-4 0-7-80 0-80 0 0-198 0-198 127 0 127 0 0-4 0-4-5 0-5 0 0-56 0-56 4 0c4 0 4 0 4-4l0-3-22 0-22 0 0 3 0 3 14 0 14 0 0 55 0 56-118 0-118 0 0-55 0-55 14 0 14 0 0-3 0-3-14 0-14 0 0-223 0-223 63 0 63 0 0-5 0-5-68 0-68 0 0 498 0 498 86 0 86 0 0-7zm646 0 0-7-6 0-6 0 0-15 0-15-4 0-4 0 0 15 0 15-37 0-37 0 0-103 0-103 37 0 37 0 0 15 0 15 4 0 4 0 0-115 0-114-80 0-80 0 0 4 0 4 76 0 76 0 0 92 0 92-190 0-190 0 0-40 0-40-3 0-3 0 0 97 0 97 3 0 3 0 0-52 0-52 148 0 148 0 0 103 0 103-148 0-148 0 0-4c0-4 0-4-4-4-3 0-3 0-4 4l0 4-9 0-9 0 0 7 0 7 213 0 213 0 0-7zm184 0 0-6-36 0-36 0 0 7 0 7 37 0 37 0 0-6zm350-101 0-107 55 0 55 0 0-6 0-6-52 0c-36 0-52 0-52-1 0-1 0-1-1 0-1 0-1-42-1-127l0-128-7 0-7 0 0 236 0 236-60 0-60 0 0 7 0 7 65 0 65 0 0-107zm-1176 97c0-2 0 0 0 3 0 4 0 5 0 3 0-2 0-5 0-6zm103 0c0-2 0 0 0 3 0 4 0 5 0 3 0-2 0-5 0-6zm5 0c0-2 0 0 0 3 0 4 0 5 0 3 0-2 0-5 0-6zm103 3c0-3 0-6-1-6-1 0-1 3-1 6 0 3 0 6 1 6 1 0 1-3 1-6zm537 0 0-6-9 0-9 0 9 0 9 0 0-5c0-11-3-25-10-39-3-6-15-25-16-25 0 0-17 17-38 37-20 20-38 37-38 37-1 0-1 2-1 5l0 5 52 0 52 0 0-6zm-79-7c2 0 6 0 9 0 3 0 1 0-4 0-5 0-7 0-5 0zm32 0c2 0 6 0 9 0 3 0 1 0-4 0-5 0-7 0-5 0zm130 8c0-3 0-6-1-6-1 0-1 3-1 6 0 3 0 6 1 6 1 0 1-3 1-6zm102-3c0-2 0 0 0 3 0 4 0 5 0 3 0-2 0-5 0-6zm5 0c0-2 0 0 0 3 0 4 0 5 0 3 0-2 0-5 0-6zm240-7c0-2 0 0 0 5 0 5 0 7 0 4 0-3 0-7 0-9zm-1079 8 0-3-48 0-48 0 0 4 0 4 48 0 48 0 0-3zm107 0 0-3-47 0-47 0 0 4 0 4 48 0 48 0 0-3zm723 0 0-3-47 0-47 0 0 4 0 4 48 0 48 0 0-3zm108 0 0-3-48 0-48 0 0 4 0 4 48 0 48 0 0-3zm-353-41c20-20 35-36 35-36-1 0-17 16-37 36-20 20-36 36-35 36 1 0 18-16 37-36zm-469 34 13-1 0-3c0-2 1-4 2-5 1-1 2-1 2 0 0 2 5 1 8-2 2-3 3-4 3-12l0-9 1 9 1 9 29-29 29-29-3-3c-6-5-12-8-19-12-10-5-18-7-27-7l-8-1 0 7 0 7 0-7 0-7-5 0-5 0 0 7 0 7 0-7c0-4-1-7-1-7-1 0-1-200 0-201 1-1 12-1 14 0 2 1 15-1 25-4 9-3 22-10 28-14l4-3-28-28c-16-16-29-28-29-28 0 0-1 0-1-1 0-2-5-7-7-7-2 0-3 0-3 4l0 4 0-4c0-2-1-4-1-4-1 0-1-2-1-4l0-4-21 0-21 0-1 7c-1 13-6 27-14 41-3 5-10 15-13 17l-2 2-34-34-34-34-126 0-126 0 0 194 0 194 81 0c213 1 285 1 297 0zm16-24c0-5 0-7 0-5 0 2 0 6 0 9 0 3 0 1 0-4zm0-33c0-5 0-7 0-5 0 2 0 6 0 9 0 3 0 1 0-4zm11 0c0-5 0-7 0-5 0 2 0 6 0 9 0 3 0 1 0-4zm-11-259c0-5 0-7 0-5 0 2 0 6 0 9 0 3 0 1 0-4zm11 0c0-5 0-7 0-5 0 2 0 6 0 9 0 3 0 1 0-4zm-11-32c0-5 0-7 0-5 0 2 0 6 0 9 0 3 0 1 0-4zm11 0c0-5 0-7 0-5 0 2 0 6 0 9 0 3 0 1 0-4zm821 348 97-1 0-233 0-233-3 0c-6 0-22-4-30-7-13-5-32-18-34-22 0-1 9-11 33-35l34-34 0-5 0-5-36 0-36 0 0-6 0-6-4 0-4 0 0-15c0-12-1-16-2-16-2-1-2-9 0-9 1 0 2-1 2-2 0-1-1-2-1-2-1 0-1-2-1-5 0-3 0-5 2-5 1 0 2-5 2-28l0-27 4 0 4 0 0-43c0-43 0-43-2-44-2-1-2-1-2-27 0-26 0-27 2-27 2-1 2-1 2-26l0-26-16 0c-15 0-16 0-16 2 0 2-1 2-12 2-6 0-11 0-12 1 0 1-6 1-14 1-8 0-14 0-14-1 0-1-5-1-12-1-10 0-11 0-12-2-1-2-2-2-67-2l-67 0 0-36 0-36-80 0c-89 0-82-1-82 7 0 6-3 18-5 25-4 10-12 25-18 31l-5 5-34-34-34-34-5 0-5 0 0 65 0 65 55 0 55 0 0-3 0-3 7 0 7 0 0 166 0 166-153 0-153 0 0 3c0 6-5 19-9 25-8 12-5 12-27-10l-19-19-14 0c-8 0-19 0-24-1l-9-1 8 0 8 0 0-5 0-5-8 0-8 0 8 0 8 0-1-9c-1-15-10-37-19-48l-3-4-34 34c-30 30-34 34-34 37 0 2 0 3 1 3 1 0 1 0 0 1-2 1-33 1-35 0-1 0-1-2-1-4 0-2 0-4-2-6-2-2-3-3-10-3l-8 0 7-1 7-1-31-31-31-31-4 5c-6 8-11 18-14 24-5 15-8 32-5 33 1 0 1 1 0 1-1 0-1 2-1 6 0 4 0 6 1 6 1 0 1 0 0 1-1 1-3 1-6 1l-4 0 0 52 0 52 4 0c2 0 5 1 6 2 1 1 1 2 0 2-1 0-1 2-1 4 0 2 0 4 1 4 1 0 2 1 3 2 1 1 4 2 10 2l9 0-8 1-8 1 31 31c17 17 31 31 31 31 0 0 2-3 4-6 7-9 13-22 16-34 2-10 3-20 2-21-1-1-1-12 0-14 0-1 28-1 97-1 83 0 97 0 99 2 1 1 1 1 1 1-2 0-2 10 0 10 1 0 1 1 0 1-1 0-1 2-1 7 0 13 7 32 17 46l4 5 29-29c23-23 29-29 27-30-1-1-1-1 1-1 4 0 7-3 7-7 0-3 0-3-5-3l-5 0 5 0c2 0 5-1 5-1 1-1 34-1 84-1l83 0 0 120 0 120 10 9c9 9 11 12 9 12-1 0 0 1 0 2 1 2 0 3-12 15-11 11-13 13-15 12-3-2-3-4 2-9l5-5 0-9 0-9 1 8 1 8 7-7 7-7-13-13c-7-7-13-13-13-13 0 0 0 2 0 4l0 4 0-3c0-2-1-4-1-4-1-1-1-8-1-16l0-15-15 0-15 0 0 100 0 100 16 0 16 0 0-14c0-10 0-14 1-16 1-1 2-1 2-1 0 1 3-1 6-4 5-5 5-6 5-10l0-4 1 4 1 4 7-7 7-7-7-7-7-7-1 3c-1 3-1 3-1-1 0-3-1-4-5-8-5-5-5-7-2-9 2-1 4 1 15 12 17 17 17 17 3 31l-10 10 0 16 0 16 6 0 6 0 37-37c20-20 37-37 38-37 2 0 7 7 13 14 5 7 11 19 14 28 2 7 5 22 5 28l0 4 39 0c94 1 184 1 274 0zM916 1204c0-5 0-7 0-4 0 2 0 6 0 9 0 2 0 0 0-4zm0-32c0-5 0-7 0-4 0 2 0 6 0 9 0 2 0 0 0-4zm0-33c0-5 0-7 0-4 0 2 0 6 0 9 0 2 0 0 0-4zm12 0c0-5 0-7 0-4 0 2 0 6 0 9 0 2 0 0 0-4zm-12-32c0-5 0-7 0-4 0 2 0 6 0 9 0 2 0 0 0-4zM433 852c2 0 6 0 9 0 2 0 0 0-4 0-5 0-7 0-4 0zm32 0c2 0 6 0 9 0 2 0 0 0-4 0-5 0-7 0-4 0zm227 0c2 0 6 0 9 0 2 0 0 0-4 0-5 0-7 0-4 0zm32 0c2 0 6 0 9 0 2 0 0 0-4 0-5 0-7 0-4 0zm-324-11c2 0 6 0 9 0 2 0 0 0-4 0-5 0-7 0-4 0zm33 0c2 0 6 0 9 0 2 0 0 0-4 0-5 0-7 0-4 0zm32 0c2 0 6 0 9 0 2 0 0 0-4 0-5 0-7 0-4 0zm227 0c2 0 6 0 9 0 2 0 0 0-4 0-5 0-7 0-4 0zm32 0c2 0 6 0 9 0 2 0 0 0-4 0-5 0-7 0-4 0zm-324-108c2 0 6 0 9 0 2 0 0 0-4 0-5 0-7 0-4 0zm33 0c2 0 6 0 9 0 2 0 0 0-4 0-5 0-7 0-4 0zm32 0c2 0 6 0 9 0 2 0 0 0-4 0-5 0-7 0-4 0zm65 0c2 0 6 0 9 0 2 0 0 0-4 0-5 0-7 0-4 0zm32 0c2 0 6 0 9 0 2 0 0 0-4 0-5 0-7 0-4 0zm-162-12c2 0 6 0 9 0 2 0 0 0-4 0-5 0-7 0-4 0zm33 0c2 0 6 0 9 0 2 0 0 0-4 0-5 0-7 0-4 0zm97 0c2 0 6 0 9 0 2 0 0 0-4 0-5 0-7 0-4 0zm32 0c2 0 6 0 9 0 2 0 0 0-4 0-5 0-7 0-4 0zm234 441 0-81-127 0-127 0 0 33 0 33 4 0c10 0 24 4 37 10 7 3 23 15 23 17 0 1-14 15-31 33-26 26-31 32-31 34l0 3 127 0 127 0 0-81zm35-18 0-99-144 0-144 0 0 16 0 16 128 0 128 0 0 83 0 83 16 0 16 0 0-99zm49 0 0-99-16 0-16 0 0 100 0 100 17 0 17 0 0-99zm596 83c0-2 0-1 0 4 0 4 0 6 0 4 0-2 0-6 0-8zm-875-53c0-1-13 12-30 29-16 16-30 30-30 31 0 1 14-12 30-29 17-16 30-30 30-31zm875 36c0-2 0 0 0 4 0 5 0 7 0 4 0-2 0-6 0-8zm-548-2c0 0-1 1-3 2-2 2-3 3-3 3 0 0 1-1 3-2 2-2 3-3 3-3zm18-18c0 0-4 3-8 8-5 5-8 9-8 9 0 0 4-3 9-8 5-5 9-9 9-9zm530 3c0-2 0 0 0 4 0 5 0 7 0 4 0-2 0-6 0-8zm0-17c0-2 0 0 0 4 0 5 0 7 0 4 0-2 0-6 0-8zm-538 1c-5-5-8-9-9-8 0 0 16 17 17 17 0 0-3-4-8-9zm538-18c0-2 0 0 0 4 0 5 0 7 0 4 0-2 0-6 0-8zm-550 6c-1-1-3-2-3-2-1 0 0 1 2 3 2 2 3 3 3 2 0 0-1-2-2-3zm550-23c0-2 0 0 0 4 0 5 0 7 0 4 0-2 0-6 0-8zm0-17c0-2 0 0 0 4 0 5 0 7 0 4 0-2 0-6 0-8zm-530-22c-1-1-23 22-23 23 0 1 5-4 12-11 7-7 12-12 11-12zm530 6c0-2 0-1 0 4 0 4 0 6 0 4 0-2 0-6 0-8zm0-17c0-2 0 0 0 4 0 5 0 7 0 4 0-2 0-6 0-8zm-538-2c-4-4-8-8-8-8 0 0 3 4 7 8 4 4 8 8 8 8 0 0-3-4-7-8zm538-15c0-2 0 0 0 4 0 5 0 7 0 4 0-2 0-6 0-8zm-550 3c-2-2-3-3-3-3 0 0 1 1 2 3 2 2 3 3 3 3 0 0-1-1-2-3zm550-20c0-2 0 0 0 4 0 5 0 7 0 4 0-2 0-6 0-8zm0-9c0-1 0 0 0 2 0 2 0 3 0 2 0-1 0-3 0-3zm680-9 0-6-14 0c-19 0-18-2 0-3 14 0 14 0 15-2 1-2 1-2 2 0 1 2 5 2 43 2l42 0 0-187c0-103 0-272 0-374l0-187-382 0-382 0 0 228c0 126 0 294 0 375l0 146 52 0c48 0 52 0 53-2 1-2 1-2 2 1 1 3-1 2 22 3 12 0 19 1 19 1 0 1-7 1-19 1-10 0-20 0-20 0-1 0-1 2-1 6l0 6 285 0 285 0 0-6zm-514-7c0-1 0-1 1-1 3-1 82 0 82 1 0 1-82 2-83 0zm97 0c0-1 0-1 1-1 3-1 82 0 82 1 0 1-82 2-83 0zm98 0c0-1 8-1 42-1 34 0 42 0 42 1 0 1-8 1-41 1-34 0-41 0-41-1zm97 0c0-1 0-1 1-1 3-1 82 0 82 1 0 1-82 2-83 0zm97 0c0-1 0-1 1-1 3-1 82 0 82 1 0 1-82 2-83 0zm-447-15c-1-3 0-33 1-33 1 0 2 33 1 34-1 1-1 1-2 0zm573 0c-1-3 0-33 1-33 1 0 2 33 1 34-1 1-1 1-2 0zm-573-48c-1-3 0-33 1-33 1 0 2 33 1 34-1 1-1 1-2 0zm573 0c-1-3 0-33 1-33 1 0 2 33 1 34-1 1-1 1-2 0zm-573-49c-1-3 0-33 1-33 1 0 2 33 1 34-1 1-1 1-2 0zm573 0c-1-3 0-33 1-33 1 0 2 33 1 34-1 1-1 1-2 0zm-574-65c0-14 0-17 2-17 1 0 2 3 2 17 0 14 0 17-1 17-1 0-1-3-1-17zm573 0c0-14 0-17 2-17 1 0 2 3 2 17 0 14 0 17-1 17-1 0-1-3-1-17zm-573-42c0-10 0-10 2-10 3 0 4 2 2 3-1 0-2 2-2 9 0 7 0 8-1 8-1 0-1-2-1-10zm573 2 0-8-14 0c-20 0-18-2 2-2l15 0 0 10c0 8 0 10-1 10-1 0-2-2-2-8zm-562-10c0-1 0-1 1-2 3-1 33 0 33 1 0 1-33 2-34 1zm48 0c0-1 0-1 1-2 3-1 33 0 33 1 0 1-33 2-34 1zm49 0c0-1 0-1 1-2 3-1 33 0 33 1 0 1-33 2-34 1zm48 0c-2-2 2-2 17-2 14 0 17 0 17 2 0 1-3 2-17 2-9 0-17 0-17-1zm49 0c0-1 0-1 1-2 3-1 33 0 33 1 0 1-33 2-34 1zm48-1c0-1 3-1 17-1 14 0 17 0 17 2 0 1-3 2-17 2-14 0-17 0-17-1zm49 0c0-1 3-1 17-1 14 0 17 0 17 2 0 1-3 2-17 2-14 0-17 0-17-1zm49 1c0-1 0-1 1-2 3-1 33 0 33 1 0 1-33 2-34 1zm49 0c0-1 0-1 1-2 3-1 33 0 33 1 0 1-33 2-34 1zm48 0c0-1 0-1 1-2 3-1 33 0 33 1 0 1-33 2-34 1zm49 0c0-1 0-1 1-2 3-1 33 0 33 1 0 1-33 2-34 1zm181 72 0-167-6 0-6 0 0 161 0 162-44 0-44 0 0 6 0 6 51 0 51 0 0-168zM718 1001l0-30-88 0-88 0 0 30 0 30 88 0 88 0 0-29zm-147 22c-8-4-12-7-14-13-3-7-3-10-1-17 3-9 13-15 26-16 14-1 25 4 31 13 3 5 3 16 1 21-2 4-8 9-14 12-8 3-20 3-28 0zm28-2c9-5 14-11 14-20 0-5 0-7-3-10-8-12-27-16-42-8-7 4-9 6-12 14-1 5-2 6 0 9 3 8 6 11 13 15 7 3 8 4 16 3 7 0 10-1 13-3zm-23-2c-6-2-12-6-15-10-4-7-1-17 6-22 5-3 13-6 18-6 6 0 18 5 21 10 3 3 3 4 2 10 0 6-1 7-4 10-7 7-19 10-29 7zm20-4c8-3 10-7 11-14 0-5 0-6-2-9-1-2-6-5-10-6-10-4-15-4-27 3-3 2-7 8-7 13 0 7 6 13 16 15 6 2 13 1 19-2zm-16-11c-1-1-1-2 1-3 2-2 3-2 5 0 1 1 2 2 1 4-1 3-5 3-7 0zm79 18c-14-6-20-19-14-32 4-8 16-15 28-15 17 0 30 10 31 23 0 11-4 17-16 23-5 2-7 3-15 3-7 0-10-1-14-3zm29-2c10-5 15-11 15-20 0-19-28-29-47-17-10 7-13 18-7 26 4 6 6 8 13 10 9 4 19 3 27 0zm-22-2c-14-4-20-14-16-24 3-8 16-15 27-14 8 1 18 6 21 12 4 8 2 17-6 21-8 5-18 7-26 4zm14-2c19-5 24-20 9-29-9-5-15-6-24-3-11 4-16 11-14 19 2 6 7 10 16 13 5 2 8 2 13 0zm-9-13c-1-2-1-2 1-4 3-3 6-1 5 3 0 3-4 4-6 1zm64 25c-3-1-3-23 0-26 2-2 4-2 31-2 36 0 33-1 33 14 0 8 0 11-2 13l-2 2 12 0 12 0 0-88 0-87-28 0-28 0-31 31c-17 17-32 31-33 31-2 0-12-12-17-22-5-10-10-25-10-34l0-6-66 0-66 0 0 3c0 3 3 6 32 35 22 22 31 32 31 33 0 1-3 3-6 6-14 11-28 17-46 20l-10 2 0 7 0 7 89 0 89 0 0 31 0 31 8 0c6 0 7 0 6-1zm21-31c-8-5-14-19-12-29 2-8 4-12 7-15 13-13 30-7 35 13 4 12-3 29-12 33-5 2-14 2-18-1zm17-2c5-3 10-11 11-18 2-14-8-28-19-28-4 0-10 3-14 7-4 5-7 15-5 22 2 8 7 16 12 18 3 1 12 1 14-1zm89 34c5-1 3-2-5-3-9-1-11-2-18-7-3-2-5-4-6-9-2-6-2-7-2-68 0-62 0-62 2-67 3-6 11-14 17-17 11-5 29-5 41 1 5 2 7 4 11 9 8 11 8 8 8 76 0 67 0 66-7 73-5 5-10 7-19 8-4 0-8 1-8 1 0 1 7 2 24 2l16 0 0-88 0-88-46 0-46 0 0 88 0 88 18 0c10 0 19 0 21-1zm10-1c0-1-1-1-1-1-1 0-1 0-1 1 0 1 1 1 2 1 1 0 2 0 2-1zm-78-2c2-2 2-19 0-21-1-1-9-1-28-1-15 0-28 0-29 1-1 1-2 2-1 11 0 6 1 11 1 11 1 1 8 1 28 1 23 0 28 0 29-2zm71-6c0-2 1-5 1-8l0-5 4 0 4 0 0 8 0 8 8-1c9-1 12-2 17-7 6-6 6-6 6-74 0-58 0-61-2-64-8-15-17-19-35-19-11 0-11 0-18 3-7 3-12 9-15 16-2 4-2 7-2 67 0 72 0 68 9 74 5 3 9 5 17 5 5 0 5 0 6-3zm1-17c-1-2 1-5 2-5 1 0 2 0 3 1 2 1 2 2 1 3-1 2-5 3-6 1zm6 14c0-6 0-7-1-7-1 0-2 1-2 3 0 2 0 5-1 7-1 3 0 4 2 4 2 0 2-1 2-7zm-300-122c-16-16-30-30-30-29 0 0 13 14 29 30 16 16 30 30 30 29 0 0-13-14-29-30zm-146-9c-18-18-33-32-33-32-1 0 14 15 31 33 18 18 33 33 33 33 1 0-14-15-31-32zm307-2c17-17 30-30 29-30-1 0-15 14-31 31-17 17-30 31-29 31 1 0 15-14 31-30zm-194-28 0-4 68 0 68 0 0-4 0-4-94 0-94 0 0 4 0 4 23 0 23 0 0 5c0 4 0 5 4 5 3 0 4 0 4-4zm-173-32 0-16-114 0-114 0 0 16 0 16 115 0 115 0 0-16zm0-53 0-34-13 0c-12 0-27-2-18-2l4 0-16-16-16-16-16 16c-16 15-16 16-18 14-3-2-3-4 0-6l2-2-4-1-4-1 5 0c4 0 5 0 17-13 12-12 13-13 17-13 4 0 5 1 17 13l13 13 26 0 26 0 1-7c1-17 8-35 20-51 9-12 5-15 43 24 31 32 34 34 37 34l4 0 0-219 0-219-177 0-177 0 0 219 0 219 15 0 15 0 13-13c18-17 16-18 37 3 9 9 16 16 16 17 0 1-1 2-2 3-2 2-2 2-7-3l-5-5-8 0-8 0 7-1 7-1-10-10-10-10-10 10-10 10 5 1 5 1-6 0c-6 0-6 0-11 6-3 3-5 6-5 6 0 0-6 1-14 1l-14 0 0 34 0 34 115 0 115 0 0-34zm-192-36c2 0 6 0 9 0 3 0 1 0-4 0-5 0-7 0-5 0zm33 0c2 0 6 0 9 0 2 0 0 0-4 0-5 0-7 0-4 0zm32 0c2 0 6 0 9 0 2 0 0 0-4 0-5 0-7 0-4 0zm33 0c2 0 6 0 9 0 2 0 0 0-4 0-5 0-7 0-4 0zm32 0c2 0 6 0 9 0 2 0 0 0-4 0-5 0-7 0-4 0zm-65-12c2 0 6 0 9 0 2 0 0 0-4 0-5 0-7 0-4 0zm65 0c2 0 6 0 9 0 2 0 0 0-4 0-5 0-7 0-4 0zm1156 51c1-1 1-1 1 0 0 1 2 1 8 1l8 0 0-45 0-45-6 0c-3 0-6 0-5 1 0 1-1 2-2 4-1 2-3 4-3 5 0 2 0 2-1 1-1-1-7 4-31 28l-30 30 4 3c5 4 18 11 27 14 6 2 19 5 25 5 3 0 4 0 5-2zm0-22c0-5 0-7 0-5 0 2 0 6 0 9 0 3 0 1 0-4zm0-32c0-5 0-7 0-4 0 2 0 6 0 9 0 2 0 0 0-4zm-798 34c-10-10-18-17-18-17-1 0 7 8 16 18 10 10 18 17 18 17 1 0-7-8-16-17zm22 10c6-9 11-28 7-28-2 0-2 0 0-1 1 0 2-2 2-6 0-4 0-5-2-5-4 0 2-2 7-2l4 0 0-16 0-16-34 0-34 0 0 17 0 17 4 0c2 0 5 0 6 1 1 1 1 1 0 1-1 0-1 1-1 3 0 2 3 6 19 22 11 11 19 19 19 19 0 0 1-2 3-4zm-24-28c2 0 6 0 9 0 3 0 1 0-4 0-5 0-7 0-5 0zm0-12c2 0 6 0 9 0 3 0 1 0-4 0-5 0-7 0-5 0zm800-37c0-1-14 13-32 30-18 18-32 33-32 33 0 1 14-13 32-30 18-18 32-33 32-33zm-461-115 0-163-4 0-4 0 0 158 0 158-57 0-57 0 0 4 0 4 61 0 61 0 0-163zm-486 159c0-3 0-3-5-4l-5 0 0-223 0-223 63 0 63 0 0-5 0-5-129 0-129 0 0 5 0 5 63 0 63 0 0 223 0 223-5 0c-5 0-5 0-5 4l0 3 14 0 14 0 0-3zm125 0c0-3 0-3-4-3l-4 0 0-38 0-38 38 0 38 0 0 38 0 38-4 0c-4 0-4 0-4 4l0 3 88 0 88 0 0-227 0-227 6 0 6 0 0-5 0-5-72 0-72 0 0 5 0 5 62 0 62 0 0 181 0 181-11 0-11 0 0 4 0 4 11 0 11 0 0 38 0 38-76 0-76 0 0-38 0-38 11 0 11 0 0-4 0-4-56 0-56 0 0 42 0 42-4 0c-4 0-4 0-4 4l0 3 13 0 13 0 0-3zm-467-5c0 0-1 1-3 2-2 2-3 3-3 3 0 0 1-1 3-2 2-2 3-3 3-3zm44-10c-8-8-15-14-15-14 0 0 6 7 14 15 8 8 15 14 15 14 0 0-6-7-14-15zm64 13c2-2 2-3 2-3-1 0-2 1-4 3-2 2-2 3-2 3 1 0 2-1 4-3zm58 0c-2-2-3-3-3-3 0 0 1 1 2 3 2 2 3 3 3 3 0 0-1-1-2-3zm-141-27c0 0-5 5-11 11-6 6-11 12-11 12 0 0 5-5 12-11 6-6 12-12 12-12zm98 12c6-6 11-11 10-11 0 0-6 5-12 11-6 6-11 11-10 11 1 0 6-5 12-11zm28-1c-6-6-12-11-12-11 0 0 5 5 11 12 6 6 12 12 12 12 0 0-5-5-11-11zm140-9c-27-28-44-45-44-44 0 1 63 64 64 64 0 0-9-9-20-21zm90-11c18-18 32-32 31-32 0 0-15 14-33 32-18 18-32 32-31 32 1 0 15-14 33-32zm-3-3c18-18 34-33 35-33 1 0 13 14 14 18 0 1 2 4 3 6 5 9 10 27 10 37 0 6 0 6 3 6l3 0 0-42 0-42 59 0c52 0 60 0 61 1 1 1 2 2 1 2-1 0-1 2-1 5 0 3 0 5 1 5 1 0 0 1-1 1-1 1-5 1-12 2l-10 0 0 16 0 16 73 0 73 0 0-16 0-16-10 0c-7 0-10 0-12-1-1-1-1-1-1-1 1 0-1-2-4-5-5-5-5-5-12-5l-6 0 6-1 6-1-14-13-14-13-19 19c-10 10-19 19-20 19-1 0-2-1-2-2-1-2-1-3 0-4 2-2 2-2-3-2l-5 0 6 0 6 0 16-16 16-16 5 0 5 0 17 17c13 13 17 16 18 15 1-1 5-1 11-1l10 0 0-177 0-177-177 0-177 0 0 219 0 219 4 0c4 0 5-1 37-33zm210-37c2 0 6 0 9 0 2 0 0 0-4 0-5 0-7 0-4 0zm32 0c2 0 6 0 9 0 2 0 0 0-4 0-5 0-7 0-4 0zm32 0c2 0 6 0 9 0 3 0 1 0-4 0-5 0-7 0-5 0zm-32-11c2 0 6 0 9 0 2 0 0 0-4 0-5 0-7 0-4 0zm72 65 0-16-72 0-72 0 0 17 0 17 73 0 73 0 0-16zm126 4 0-12-20 0c-17 0-20 0-20-1 0-1 3-1 20-1l20 0 0-13 0-13-20 0c-17 0-20 0-20-1 0-1 3-1 20-1l20 0 0-12 0-12-20 0c-17 0-20 0-20-1 0-1 3-1 20-1l20 0 0-12 0-12-20 0c-17 0-20 0-20-1 0-1 3-1 20-1l20 0 0-12 0-12-20 0c-17 0-20 0-20-1 0-1 3-1 20-1l20 0 0-12 0-12-20 0c-17 0-20 0-20-1 0-1 3-2 20-2l20 0 0-13 0-13-20 0c-17 0-20 0-20-1 0-1 3-1 20-1l20 0 0-12 0-12-20 0c-17 0-20 0-20-1 0-1 3-1 20-1l20 0 0-12 0-12-20 0c-17 0-20 0-20-1 0-1 3-1 20-1l20 0 0-12 0-12-20 0c-17 0-20 0-20-1 0-1 3-1 20-1l20 0 0-12 0-12-55 0-55 0 0 13 0 13 20 0c17 0 20 0 20 2 0 1-3 2-19 2l-19 0 0 13 0 13 20 0c17 0 20 0 20 2 0 1-3 2-19 2l-19 0 0 13 0 13 20 0c17 0 20 0 20 2 0 1-3 2-19 2l-19 0 0 13 0 13 20 0c17 0 20 0 20 2 0 1-3 2-19 2l-19 0 0 13 0 13 20 0c17 0 20 0 20 2 0 1-3 2-19 2l-19 0 0 13 0 13 20 0c17 0 20 0 20 2 0 1-3 2-19 2l-19 0 0 13 0 13 20 0c17 0 20 0 20 2 0 1-3 2-19 2l-19 0 0 13 0 13 20 0c17 0 20 0 20 2 0 1-3 2-19 2l-19 0 0 13 0 13 20 0c17 0 20 0 20 2 0 1-3 2-19 2l-19 0 0 13 0 13 20 0c17 0 20 0 20 2 0 1-3 2-19 2l-19 0 0 13 0 13 56 0 56 0 0-12zm1283-51c0-52 0-59-1-59-1 0-1 1-1 4 0 3 0 4-2 4-4 0-4 3-4 53 0 31 0 47 1 47 1 0 1 1 1 2 0 1 1 2 2 2 2 0 2 1 2 5 0 3 0 5 2 5 1 0 2-7 2-59zm-15 0 0-48-3 0-3 0 0 48 0 48 3 0 3 0 0-48zm-1555 12 0-16-34 0-34 0 0 16 0 16 34 0 34 0 0-16zm776-190 0-200 386 0 386 0 0 162 0 162 7 0 7 0 0-167 0-167-490 0-490 0 0 5 0 5 90 0 90 0 0 190 0 190-36 0-36 0 0 4 0 4 36 0 36 0 0 6 0 6 7 0 7 0 0-200zm-92 158c0-17 0-19-1-19-1 0-1 3-1 20 0 17 0 20 2 20 1 0 2-3 2-19zm38 14c0-3 1-5 1-5 1 0 1 2 1 5l0 5 16 0 16 0 0-52 0-53-16 0-16 0 0 16c0 10-1 16-1 16-1 0-1-6-1-16l0-16-17 0-17 0 0 53 0 53 17 0 17 0 0-5zm0-21c-1-3 0-33 1-33 1 0 2 33 1 34-1 1-1 1-2 0zm-600-3c-10-10-18-18-19-18-1 0 7 8 17 18 10 10 19 18 19 18 0 0-8-9-17-18zm-56 16c1-1 2-2 1-2-1 0-2 1-3 3-1 1-2 3-1 3 1 0 2-1 3-2zm19-18c8-8 15-15 14-15-1 0-8 7-16 15-8 8-15 15-14 15 1 0 8-7 16-15zm600-41c0-27 0-32-1-32-1 0-1 4-1 32 0 27 0 32 2 32 1 0 2-4 2-31zm873 23c-2 0-4 0-6 0-2 0 0 0 3 0 3 0 5 0 3 0zm-799-92 0-34-16 0-16 0 0 3c0 2-1 3-1 3-1 0-1-1-1-3l0-3-16 0-16 0 0 35 0 35 35 0 35 0 0-34zm-35 19c-1-3 0-33 1-33 1 0 2 33 1 34-1 1-1 1-2 0zm-1-63c0-3-1-7-1-9-5-9 2-21 12-21 16 0 21 20 7 28-5 2-11 2-14 0-1-1-1 0-1 4l0 5 14 0 14 0 0-43 0-43-13 0c-11 0-13 0-13 2 0 1-1 2-1 2-1 0-1-1-1-1 0-1-2-1-16-1l-16 0 0 43 0 43 17 0 17 0 0-6zm-25-2c-4-2-6-6-6-11 0-3 1-5 3-8 3-3 4-3 8-3 8 0 12 3 13 10 1 4-1 10-5 12-4 2-10 3-13 1zm10-3c3-1 5-5 5-9 0-3-5-8-8-8-5 0-6 0-9 3-4 4-3 10 1 13 3 3 6 3 10 1zm15-29c0 0-1-8-1-17 0-13 0-16 1-18 1-1 3-3 4-4 3-4 10-5 15-2 8 4 8 17 0 21-5 2-10 2-14-2l-2-2 0 12c0 11-1 14-2 12zm19-24c6-5 3-15-6-15-6 0-9 3-9 9 0 8 9 12 15 7zm-40 11c-12-4-13-22-2-28 10-5 23 4 21 15-1 9-10 15-19 13zm11-5c3-2 5-7 5-10 0-6-6-11-13-11-12 0-15 18-4 23 4 2 7 1 11-1zm45 15c0-38 0-43-1-43-1 0-1 5-1 43 0 38 0 43 2 43 1 0 2-5 2-43zm-16 30c7-8 2-20-9-20-3 0-4 1-7 4-3 3-3 4-2 5 1 1 2 2 2 7 0 6 0 6 3 7 5 2 10 1 14-3zm-20-92c0-14 0-16 2-16 1 0 2 3 2 17l0 17 17 0 17 0 0-52 0-52-79 0-79 0 0 2c0 2 0 2 26 2l26 0 0 13c0 7 0 14 0 14 0 1 4 1 16 1 14 0 16 0 16 2 0 1-2 2-16 2-15 0-16 0-16 2 0 2 0 29 0 30 0 0 8 1 18 1l18 0 0 18 0 18 16 0 16 0 0-16zm0-42 0-10-11 0c-9 0-11 0-11-2 0-1 2-1 12-1l12 0 0 12c0 10 0 12-1 12-1 0-2-2-2-10zm-88 26c-9 0-25 0-35 0-10 0-2 0 17 0 19 0 27 0 18 0zm-53-5c0-1 0-15 0-32l0-31 8 0c7 0 8 0 8-2l0-2-74 0-74 0 0 34 0 34 67 0c52 0 67 0 67-1zm-99-1c-1 0-3-2-3-3-1-1-1-12-1-30 0-28 0-29 2-30 2-1 8-2 46-2 44 0 48 0 49 4 1 3 1 56 0 58-1 1-2 2-4 3-4 1-85 1-89 0zm88-3 3-1 0-27c0-25 0-28-1-29-1-1-6-1-14-1l-12 0 0 3c0 2 0 4-1 5-1 1 0 2 11 2 8 0 13 0 14 1 1 1 1 7 1 22 0 15 0 21-1 22-1 1-6 1-19 1-17 0-18 0-19-2-1-1-1-10-1-22 0-12 0-20 1-22 1-2 1-2-4-2-5 0-6 1-4 3 2 1 1 41 0 43-1 2-3 2-19 2-15 0-18 0-19-2-2-1-2-4-2-22 0-17 0-20 2-22 1-2 3-2 14-2 7 0 12 0 11-1-1 0-1-2-1-4l0-4-13 0c-9 0-13 0-14 1-1 1-1 9-1 29l0 28 2 1c3 2 83 2 87 0zm-49-26 0-20-16 0c-12 0-17 0-17 1-1 2-1 38 0 39 0 0 8 1 17 0l17 0 0-20zm-20 4c-4-2-4-8 0-10 5-3 11 6 6 9-3 2-3 2-5 1zm5-5c0-2-2-3-4-2-2 1-2 3 0 4 2 2 4 0 4-2zm62 2 0-20-16 0c-14 0-16 0-17 2-1 2-1 38 0 39 0 0 8 1 17 1l16 0 0-20zm-20 3c-3-1-4-5-2-8 2-3 7-3 9 0 2 2 2 5-1 7-2 2-3 2-6 1zm5-5c0-1-1-2-1-2-2-1-4 0-4 2 0 1 1 2 1 2 2 1 4 0 4-2zm-10-27c0-2-1-2-15-2-14 0-15 0-15 2 0 2 1 2 15 2 14 0 15 0 15-2zm108 59c0-2 0-60 0-61 0-2-49-1-51 0-1 1-2 1-2 0-1-1-11-2-13-1-1 0-1 55-1 61 0 0 15 1 33 1 18 0 33 0 33-1zm-43-5c0-3 0-3 3-3 1 0 3 0 3 1 0 0-1 1-2 0-2 0-2 0-2 2 0 3 1 3 3 1 1-1 1-1 1-1 0 1-2 3-4 3-1 0-1-1-1-3zm10 0c0-3 0-4 1-1 1 2 1 2 2 1 0-1 1-2 1-2 1 0 5 4 5 5 0 1-1 0-2-2l-2-3-2 3-2 3 0-4zm-2-2c0-1 0-2 1-1 0 0 0 1 0 2 0 1-1 1-1-1zM1298 316c0 0-1-3-1-7 0-5 0-6 2-6 1 0 2 1 2 5l0 5 18 0c11 0 18 1 18 1 0 1-38 2-39 1zm-375-4c-18-18-33-32-33-32 0 0 14 15 32 33 18 18 33 33 33 33 0 0-14-15-32-32zm38 25c5-7 12-20 15-30 3-8 5-25 4-27 0-1 0-4 0-7l0-6-46 0-46 0 0 4c0 4 3 8 7 8 2 0 2 0 1 1-1 0 5 7 29 31 17 17 31 31 31 31 0 0 2-2 4-5zm-42-58c2 0 6 0 9 0 2 0 0 0-4 0-5 0-7 0-4 0zm32 0c2 0 6 0 9 0 2 0 0 0-4 0-5 0-7 0-4 0zm-688-10c0-2 0 0 0 3 0 3 0 5 0 3 0-2 0-4 0-6zm99 6 0-2-48 0-48 0 0 3 0 3 48 0 48 0 0-2zm271-6c0-2 0 0 0 3 0 3 0 5 0 3 0-2 0-4 0-6zm98 6 0-2-47 0-47 0 0 3 0 3 48 0 48 0 0-2zm5-3c0-3 0-5-1-5-1 0-1 2-1 6 0 3 0 6 1 6 1 0 1-2 1-5zm440-3c0-2 0 0 0 3 0 3 0 5 0 3 0-2 0-4 0-6zm99 6 0-2-48 0-48 0 0 3 0 3 48 0 48 0 0-2zm-104-4 0-5-93 0-94 0 0 6 0 6 94 0 94 0 0-5zm-808-6c1-1 2-3 2-4 0-1 1-2 4-2 2 0 4-1 4-1 0-1-23-1-59-1-36 0-59 0-59 1 0 1 2 1 4 1 3 0 4 1 4 3 0 1 1 2 2 2 1 0 2 1 2 2 1 1 7 2 48 2 45 0 47 0 49-2zm368 0c0-1 1-1 3-1 1 0 2-1 2-2 0-2 1-2 4-3 2 0 3-1 3-1 0-1-23-1-59-1-36 0-59 0-59 1 0 1 2 1 4 1 3 0 4 1 4 3 0 1 1 2 2 2 1 0 2 1 2 2 1 1 7 2 48 2 41 0 47 0 48-1zm545 0c1-1 2-3 2-4 0-1 1-2 4-2 2 0 4-1 4-1 0-1-23-1-59-1-36 0-59 0-59 1 0 1 2 1 4 1 3 0 4 1 4 3 0 1 1 2 2 2 1 0 2 1 2 2 1 1 7 2 48 2 45 0 47 0 49-2zm-1145-2c-2 0-6 0-8 0-2 0-1 0 4 0 4 0 6 0 4 0zm16 0c-2 0-6 0-8 0-2 0 0 0 4 0 5 0 7 0 4 0zm17 0c-2 0-6 0-8 0-2 0 0 0 4 0 5 0 7 0 4 0zm17 0c-2 0-6 0-8 0-2 0 0 0 4 0 5 0 7 0 4 0zm17 0c-2 0-6 0-8 0-2 0 0 0 4 0 5 0 7 0 4 0zm17 0c-2 0-6 0-8 0-2 0 0 0 4 0 5 0 7 0 4 0zm17 0c-2 0-6 0-8 0-2 0 0 0 4 0 5 0 7 0 4 0zm17 0c-2 0-6 0-8 0-2 0 0 0 4 0 5 0 7 0 4 0zm8 0c-1 0-2 0-2 0-1 0 0 1 1 1 1 0 2 0 1-1zm127 0c-2 0-6 0-8 0-2 0 0 0 4 0 5 0 7 0 4 0zm17 0c-2 0-6 0-8 0-2 0 0 0 4 0 5 0 7 0 4 0zm17 0c-2 0-6 0-8 0-2 0-1 0 4 0 4 0 6 0 4 0zm16 0c-2 0-6 0-8 0-2 0 0 0 4 0 5 0 7 0 4 0zm17 0c-2 0-6 0-8 0-2 0 0 0 4 0 5 0 7 0 4 0zm17 0c-2 0-6 0-8 0-2 0 0 0 4 0 5 0 7 0 4 0zm17 0c-2 0-6 0-8 0-2 0 0 0 4 0 5 0 7 0 4 0zm17 0c-2 0-6 0-8 0-2 0 0 0 4 0 5 0 7 0 4 0zm17 0c-2 0-6 0-8 0-2 0 0 0 4 0 5 0 7 0 4 0zm17 0c-2 0-6 0-8 0-2 0-1 0 4 0 4 0 6 0 4 0zm17 0c-3 0-7 0-9 0-2 0 0 0 5 0 5 0 7 0 4 0zm17 0c-2 0-6 0-8 0-2 0-1 0 4 0 4 0 6 0 4 0zm16 0c-2 0-6 0-8 0-2 0 0 0 4 0 5 0 7 0 4 0zm17 0c-2 0-6 0-8 0-2 0 0 0 4 0 5 0 7 0 4 0zm17 0c-2 0-6 0-8 0-2 0 0 0 4 0 5 0 7 0 4 0zm7 0c-1 0-2 0-2 0 0 0 0 1 1 1 1 0 1 0 1-1zm115 0c-1 0-2 0-2 0 0 0 0 1 1 1 1 0 1 0 1-1zm14 0c-2 0-6 0-8 0-2 0-1 0 4 0 4 0 6 0 4 0zm16 0c-2 0-6 0-8 0-2 0 0 0 4 0 5 0 7 0 4 0zm17 0c-2 0-6 0-8 0-2 0 0 0 4 0 5 0 7 0 4 0zm17 0c-2 0-6 0-8 0-2 0-1 0 4 0 4 0 6 0 4 0zm17 0c-3 0-7 0-9 0-2 0 0 0 5 0 5 0 7 0 4 0zm17 0c-2 0-6 0-8 0-2 0-1 0 4 0 4 0 6 0 4 0zm17 0c-3 0-7 0-9 0-2 0 0 0 5 0 5 0 7 0 4 0zm17 0c-2 0-6 0-8 0-2 0-1 0 4 0 4 0 6 0 4 0zm9 0c-1 0-3 0-4 0-1 0 0 0 2 0 2 0 3 0 2 0zm109 0c-2 0-4 0-6 0-2 0 0 0 3 0 3 0 5 0 3 0zm16 0c-3 0-7 0-9 0-2 0 0 0 5 0 5 0 7 0 4 0zm17 0c-2 0-6 0-8 0-2 0-1 0 4 0 4 0 6 0 4 0zm16 0c-2 0-6 0-8 0-2 0 0 0 4 0 5 0 7 0 4 0zm17 0c-2 0-6 0-8 0-2 0 0 0 4 0 5 0 7 0 4 0zm17 0c-2 0-6 0-8 0-2 0-1 0 4 0 4 0 6 0 4 0zm17 0c-3 0-7 0-9 0-2 0 0 0 5 0 5 0 7 0 4 0zm17 0c-2 0-6 0-8 0-2 0-1 0 4 0 4 0 6 0 4 0zm17 0c-3 0-7 0-9 0-2 0 0 0 5 0 5 0 7 0 4 0zm17 0c-2 0-6 0-8 0-2 0-1 0 4 0 4 0 6 0 4 0zm16 0c-2 0-6 0-8 0-2 0 0 0 4 0 5 0 7 0 4 0zm10 0c-1 0-3 0-3 0-1 0 0 0 2 0 2 0 3 0 2 0zm126 0c-2 0-6 0-8 0-2 0-1 0 4 0 4 0 6 0 4 0zm16 0c-2 0-6 0-8 0-2 0 0 0 4 0 5 0 7 0 4 0zm17 0c-2 0-6 0-8 0-2 0 0 0 4 0 5 0 7 0 4 0zm17 0c-2 0-6 0-8 0-2 0 0 0 4 0 5 0 7 0 4 0zm17 0c-2 0-6 0-8 0-2 0 0 0 4 0 5 0 7 0 4 0zm17 0c-2 0-6 0-8 0-2 0-1 0 4 0 4 0 6 0 4 0zm17 0c-3 0-7 0-9 0-2 0 0 0 5 0 5 0 7 0 4 0zm17 0c-2 0-6 0-8 0-2 0-1 0 4 0 4 0 6 0 4 0zm16 0c-2 0-6 0-8 0-2 0 0 0 4 0 5 0 7 0 4 0zm17 0c-2 0-6 0-8 0-2 0 0 0 4 0 5 0 7 0 4 0zm17 0c-2 0-6 0-8 0-2 0 0 0 4 0 5 0 7 0 4 0zm17 0c-2 0-6 0-8 0-2 0 0 0 4 0 5 0 7 0 4 0zm17 0c-2 0-6 0-8 0-2 0 0 0 4 0 5 0 7 0 4 0zm17 0c-2 0-6 0-8 0-2 0 0 0 4 0 5 0 7 0 4 0zm17 0c-2 0-6 0-8 0-2 0-1 0 4 0 4 0 6 0 4 0zm17 0c-3 0-7 0-9 0-2 0 0 0 5 0 5 0 7 0 4 0zm17 0c-2 0-6 0-8 0-2 0-1 0 4 0 4 0 6 0 4 0zm16 0c-2 0-6 0-8 0-2 0 0 0 4 0 5 0 7 0 4 0zm17 0c-2 0-6 0-8 0-2 0 0 0 4 0 5 0 7 0 4 0zm17 0c-2 0-6 0-8 0-2 0 0 0 4 0 5 0 7 0 4 0zm17 0c-2 0-6 0-8 0-2 0 0 0 4 0 5 0 7 0 4 0zm17 0c-2 0-6 0-8 0-2 0 0 0 4 0 5 0 7 0 4 0zm17 0c-2 0-6 0-8 0-2 0 0 0 4 0 5 0 7 0 4 0zm17 0c-2 0-6 0-8 0-2 0-1 0 4 0 4 0 6 0 4 0zm16 0c-2 0-6 0-8 0-2 0 0 0 4 0 5 0 7 0 4 0zm17 0c-2 0-6 0-8 0-2 0 0 0 4 0 5 0 7 0 4 0zm17 0c-2 0-6 0-8 0-2 0 0 0 4 0 5 0 7 0 4 0zm17 0c-2 0-6 0-8 0-2 0 0 0 4 0 5 0 7 0 4 0zm17 0c-2 0-6 0-8 0-2 0 0 0 4 0 5 0 7 0 4 0zm17 0c-2 0-6 0-8 0-2 0 0 0 4 0 5 0 7 0 4 0zm17 0c-2 0-6 0-8 0-2 0 0 0 4 0 5 0 7 0 4 0zm17 0c-2 0-6 0-8 0-2 0 0 0 4 0 5 0 7 0 4 0zm17 0c-2 0-6 0-8 0-2 0 0 0 4 0 5 0 7 0 4 0zm17 0c-2 0-6 0-8 0-2 0-1 0 4 0 4 0 6 0 4 0zm16 0c-2 0-6 0-8 0-2 0 0 0 4 0 5 0 7 0 4 0zm17 0c-2 0-6 0-8 0-2 0 0 0 4 0 5 0 7 0 4 0zm17 0c-2 0-6 0-8 0-2 0 0 0 4 0 5 0 7 0 4 0zm17 0c-2 0-6 0-8 0-2 0 0 0 4 0 5 0 7 0 4 0zm17 0c-2 0-6 0-8 0-2 0 0 0 4 0 5 0 7 0 4 0zm17 0c-2 0-6 0-8 0-2 0 0 0 4 0 5 0 7 0 4 0zm17 0c-2 0-6 0-8 0-2 0-1 0 4 0 4 0 6 0 4 0zm17 0c-3 0-7 0-9 0-2 0 0 0 5 0 5 0 7 0 4 0zm17 0c-2 0-6 0-8 0-2 0-1 0 4 0 4 0 6 0 4 0zm16 0c-2 0-6 0-8 0-2 0 0 0 4 0 5 0 7 0 4 0zm17 0c-2 0-6 0-8 0-2 0 0 0 4 0 5 0 7 0 4 0zm17 0c-2 0-6 0-8 0-2 0 0 0 4 0 5 0 7 0 4 0zm17 0c-2 0-6 0-8 0-2 0 0 0 4 0 5 0 7 0 4 0zm17 0c-2 0-6 0-8 0-2 0 0 0 4 0 5 0 7 0 4 0zm17 0c-2 0-6 0-8 0-2 0 0 0 4 0 5 0 7 0 4 0zm17 0c-2 0-6 0-8 0-2 0-1 0 4 0 4 0 6 0 4 0zm17 0c-3 0-7 0-9 0-2 0 0 0 5 0 5 0 7 0 4 0zm17 0c-2 0-6 0-8 0-2 0-1 0 4 0 4 0 6 0 4 0zm16 0c-2 0-6 0-8 0-2 0 0 0 4 0 5 0 7 0 4 0zm17 0c-2 0-6 0-8 0-2 0 0 0 4 0 5 0 7 0 4 0zm17 0c-2 0-6 0-8 0-2 0 0 0 4 0 5 0 7 0 4 0zm17 0c-2 0-6 0-8 0-2 0 0 0 4 0 5 0 7 0 4 0zm17 0c-2 0-6 0-8 0-2 0-1 0 4 0 4 0 6 0 4 0zm17 0c-3 0-7 0-9 0-2 0 0 0 5 0 5 0 7 0 4 0z"/><path class="animateMe" d="m843 1374 0-108-161 0-161 0 0 3 0 3-116 0-116 0 0-3 0-3-82 0c-57 0-82 0-83 1-1 1-3 1-5 1-4 0-4-1-4-4 0-2 0-4 1-4 2-2 2-991 0-992-1-1-1-3-1-4l0-3 69 0 69 0 0-2 0-2 62 0 62 0 0 2 0 2 122 0 122 0 0-2 0-2 62 0 62 0 0 2 0 2 71 0 71 0 0 2 0 2 45 0 45 0 0-2 0-2 92 0 92 0 0-2 0-2 62 0 62 0 0 2 0 2 490 0 490 0 0 3c0 2 0 4-1 4-1 1-1 49-1 164l0 163 3 0 3 0 0 62 0 62-3 0-3 0 0 162c0 114 0 163 1 163 1 1 1 3 1 4l0 3-55 0c-47 0-56 0-57-2-1-1-37-1-285-1-252 0-284 0-284 2 0 1-7 2-54 2l-54 0 0 108 0 108-4 0c-2 0-4 0-5-1-1-1-12-1-32-1l-31 0 0 108 0 108-282 0-283 0 0-108zm65 100 0-4-25 0-25 0 0 5 0 5 25 0 25 0 0-4zm156-2 0-6 164 0 164 0 0-100 0-100-22 0-22 0 0 3 0 3-116 0-116 0 0-3 0-3-35 0c-31 0-35 0-35-1 0-1-6-2-52-2-46 0-51 0-52 2 0 1-5 2-43 1l-42 0 0 100 0 100 33 0 33 0 0 6 0 6 69 0 69 0 0-6zm328 2 0-4-156 0-156 0 0 5 0 5 157 0 157 0 0-4zm-475-4c-1 0-2 0-2 0 0 0 0 1 1 1 1 0 1 0 1-1zm-62-104 0-99-4 0-4 0 0 100 0 100 4 0 4 0 0-99zm549 0 0-99-4 0-4 0 0 100 0 100 4 0 4 0 0-99zm-887-98c0-1-1-2-4-1-3 0-4 0-4-1 0-1-1-2-2-2-1 0-2-1-2-1-1-1-7-1-48-1l-47 0-3 4c-3 4-6 4-6 1 0-1-1-1-2-1-1 0-2-1-2-1-1-1-7-1-48-1l-47 0-3 3c-3 3-4 3-6 3-2 0-3 0-3 1 0 1 9 2 114 2 104 0 114 0 114-2zm829 0c0-1-1-2-4-1-3 0-4 0-4-1 0-1-1-2-2-3-2-2-5-2-49-2l-47 0-3 4c-3 4-6 4-6 1 0-1-1-1-2-1-1 0-2-1-2-1-1-1-7-1-48-1-41 0-47 0-48 2 0 1-1 2-2 2-1 0-2 1-2 2 0 2-1 2-4 1-3 0-4 0-4 1 0 1 9 2 114 2 104 0 114 0 114-2zm130-9c0-1 0 0 0 2 0 2 0 2 0 1 0-1 0-2 0-3zm-1183-4 0-7-80 0-80 0 0-198 0-198 127 0 127 0 0-4 0-4-5 0-5 0 0-56 0-56 4 0c4 0 4 0 4-4l0-3-22 0-22 0 0 3 0 3 14 0 14 0 0 55 0 56-118 0-118 0 0-55 0-55 14 0 14 0 0-3 0-3-14 0-14 0 0-223 0-223 63 0 63 0 0-5 0-5-68 0-68 0 0 498 0 498 86 0 86 0 0-7zm646 0 0-7-6 0-6 0 0-15 0-15-4 0-4 0 0 15 0 15-37 0-37 0 0-103 0-103 37 0 37 0 0 15 0 15 4 0 4 0 0-115 0-114-80 0-80 0 0 4 0 4 76 0 76 0 0 92 0 92-190 0-190 0 0-40 0-40-3 0-3 0 0 97 0 97 3 0 3 0 0-52 0-52 148 0 148 0 0 103 0 103-148 0-148 0 0-4c0-4 0-4-4-4-3 0-3 0-4 4l0 4-9 0-9 0 0 7 0 7 213 0 213 0 0-7zm184 0 0-6-36 0-36 0 0 7 0 7 37 0 37 0 0-6zm350-101 0-107 55 0 55 0 0-6 0-6-52 0c-36 0-52 0-52-1 0-1 0-1-1 0-1 0-1-42-1-127l0-128-7 0-7 0 0 236 0 236-60 0-60 0 0 7 0 7 65 0 65 0 0-107zm-1176 97c0-2 0 0 0 3 0 4 0 5 0 3 0-2 0-5 0-6zm103 0c0-2 0 0 0 3 0 4 0 5 0 3 0-2 0-5 0-6zm5 0c0-2 0 0 0 3 0 4 0 5 0 3 0-2 0-5 0-6zm103 3c0-3 0-6-1-6-1 0-1 3-1 6 0 3 0 6 1 6 1 0 1-3 1-6zm537 0 0-6-9 0-9 0 9 0 9 0 0-5c0-11-3-25-10-39-3-6-15-25-16-25 0 0-17 17-38 37-20 20-38 37-38 37-1 0-1 2-1 5l0 5 52 0 52 0 0-6zm-79-7c2 0 6 0 9 0 3 0 1 0-4 0-5 0-7 0-5 0zm32 0c2 0 6 0 9 0 3 0 1 0-4 0-5 0-7 0-5 0zm130 8c0-3 0-6-1-6-1 0-1 3-1 6 0 3 0 6 1 6 1 0 1-3 1-6zm102-3c0-2 0 0 0 3 0 4 0 5 0 3 0-2 0-5 0-6zm5 0c0-2 0 0 0 3 0 4 0 5 0 3 0-2 0-5 0-6zm240-7c0-2 0 0 0 5 0 5 0 7 0 4 0-3 0-7 0-9zm-1079 8 0-3-48 0-48 0 0 4 0 4 48 0 48 0 0-3zm107 0 0-3-47 0-47 0 0 4 0 4 48 0 48 0 0-3zm723 0 0-3-47 0-47 0 0 4 0 4 48 0 48 0 0-3zm108 0 0-3-48 0-48 0 0 4 0 4 48 0 48 0 0-3zm-353-41c20-20 35-36 35-36-1 0-17 16-37 36-20 20-36 36-35 36 1 0 18-16 37-36zm-469 34 13-1 0-3c0-2 1-4 2-5 1-1 2-1 2 0 0 2 5 1 8-2 2-3 3-4 3-12l0-9 1 9 1 9 29-29 29-29-3-3c-6-5-12-8-19-12-10-5-18-7-27-7l-8-1 0 7 0 7 0-7 0-7-5 0-5 0 0 7 0 7 0-7c0-4-1-7-1-7-1 0-1-200 0-201 1-1 12-1 14 0 2 1 15-1 25-4 9-3 22-10 28-14l4-3-28-28c-16-16-29-28-29-28 0 0-1 0-1-1 0-2-5-7-7-7-2 0-3 0-3 4l0 4 0-4c0-2-1-4-1-4-1 0-1-2-1-4l0-4-21 0-21 0-1 7c-1 13-6 27-14 41-3 5-10 15-13 17l-2 2-34-34-34-34-126 0-126 0 0 194 0 194 81 0c213 1 285 1 297 0zm16-24c0-5 0-7 0-5 0 2 0 6 0 9 0 3 0 1 0-4zm0-33c0-5 0-7 0-5 0 2 0 6 0 9 0 3 0 1 0-4zm11 0c0-5 0-7 0-5 0 2 0 6 0 9 0 3 0 1 0-4zm-11-259c0-5 0-7 0-5 0 2 0 6 0 9 0 3 0 1 0-4zm11 0c0-5 0-7 0-5 0 2 0 6 0 9 0 3 0 1 0-4zm-11-32c0-5 0-7 0-5 0 2 0 6 0 9 0 3 0 1 0-4zm11 0c0-5 0-7 0-5 0 2 0 6 0 9 0 3 0 1 0-4zm821 348 97-1 0-233 0-233-3 0c-6 0-22-4-30-7-13-5-32-18-34-22 0-1 9-11 33-35l34-34 0-5 0-5-36 0-36 0 0-6 0-6-4 0-4 0 0-15c0-12-1-16-2-16-2-1-2-9 0-9 1 0 2-1 2-2 0-1-1-2-1-2-1 0-1-2-1-5 0-3 0-5 2-5 1 0 2-5 2-28l0-27 4 0 4 0 0-43c0-43 0-43-2-44-2-1-2-1-2-27 0-26 0-27 2-27 2-1 2-1 2-26l0-26-16 0c-15 0-16 0-16 2 0 2-1 2-12 2-6 0-11 0-12 1 0 1-6 1-14 1-8 0-14 0-14-1 0-1-5-1-12-1-10 0-11 0-12-2-1-2-2-2-67-2l-67 0 0-36 0-36-80 0c-89 0-82-1-82 7 0 6-3 18-5 25-4 10-12 25-18 31l-5 5-34-34-34-34-5 0-5 0 0 65 0 65 55 0 55 0 0-3 0-3 7 0 7 0 0 166 0 166-153 0-153 0 0 3c0 6-5 19-9 25-8 12-5 12-27-10l-19-19-14 0c-8 0-19 0-24-1l-9-1 8 0 8 0 0-5 0-5-8 0-8 0 8 0 8 0-1-9c-1-15-10-37-19-48l-3-4-34 34c-30 30-34 34-34 37 0 2 0 3 1 3 1 0 1 0 0 1-2 1-33 1-35 0-1 0-1-2-1-4 0-2 0-4-2-6-2-2-3-3-10-3l-8 0 7-1 7-1-31-31-31-31-4 5c-6 8-11 18-14 24-5 15-8 32-5 33 1 0 1 1 0 1-1 0-1 2-1 6 0 4 0 6 1 6 1 0 1 0 0 1-1 1-3 1-6 1l-4 0 0 52 0 52 4 0c2 0 5 1 6 2 1 1 1 2 0 2-1 0-1 2-1 4 0 2 0 4 1 4 1 0 2 1 3 2 1 1 4 2 10 2l9 0-8 1-8 1 31 31c17 17 31 31 31 31 0 0 2-3 4-6 7-9 13-22 16-34 2-10 3-20 2-21-1-1-1-12 0-14 0-1 28-1 97-1 83 0 97 0 99 2 1 1 1 1 1 1-2 0-2 10 0 10 1 0 1 1 0 1-1 0-1 2-1 7 0 13 7 32 17 46l4 5 29-29c23-23 29-29 27-30-1-1-1-1 1-1 4 0 7-3 7-7 0-3 0-3-5-3l-5 0 5 0c2 0 5-1 5-1 1-1 34-1 84-1l83 0 0 120 0 120 10 9c9 9 11 12 9 12-1 0 0 1 0 2 1 2 0 3-12 15-11 11-13 13-15 12-3-2-3-4 2-9l5-5 0-9 0-9 1 8 1 8 7-7 7-7-13-13c-7-7-13-13-13-13 0 0 0 2 0 4l0 4 0-3c0-2-1-4-1-4-1-1-1-8-1-16l0-15-15 0-15 0 0 100 0 100 16 0 16 0 0-14c0-10 0-14 1-16 1-1 2-1 2-1 0 1 3-1 6-4 5-5 5-6 5-10l0-4 1 4 1 4 7-7 7-7-7-7-7-7-1 3c-1 3-1 3-1-1 0-3-1-4-5-8-5-5-5-7-2-9 2-1 4 1 15 12 17 17 17 17 3 31l-10 10 0 16 0 16 6 0 6 0 37-37c20-20 37-37 38-37 2 0 7 7 13 14 5 7 11 19 14 28 2 7 5 22 5 28l0 4 39 0c94 1 184 1 274 0zM916 1204c0-5 0-7 0-4 0 2 0 6 0 9 0 2 0 0 0-4zm0-32c0-5 0-7 0-4 0 2 0 6 0 9 0 2 0 0 0-4zm0-33c0-5 0-7 0-4 0 2 0 6 0 9 0 2 0 0 0-4zm12 0c0-5 0-7 0-4 0 2 0 6 0 9 0 2 0 0 0-4zm-12-32c0-5 0-7 0-4 0 2 0 6 0 9 0 2 0 0 0-4zM433 852c2 0 6 0 9 0 2 0 0 0-4 0-5 0-7 0-4 0zm32 0c2 0 6 0 9 0 2 0 0 0-4 0-5 0-7 0-4 0zm227 0c2 0 6 0 9 0 2 0 0 0-4 0-5 0-7 0-4 0zm32 0c2 0 6 0 9 0 2 0 0 0-4 0-5 0-7 0-4 0zm-324-11c2 0 6 0 9 0 2 0 0 0-4 0-5 0-7 0-4 0zm33 0c2 0 6 0 9 0 2 0 0 0-4 0-5 0-7 0-4 0zm32 0c2 0 6 0 9 0 2 0 0 0-4 0-5 0-7 0-4 0zm227 0c2 0 6 0 9 0 2 0 0 0-4 0-5 0-7 0-4 0zm32 0c2 0 6 0 9 0 2 0 0 0-4 0-5 0-7 0-4 0zm-324-108c2 0 6 0 9 0 2 0 0 0-4 0-5 0-7 0-4 0zm33 0c2 0 6 0 9 0 2 0 0 0-4 0-5 0-7 0-4 0zm32 0c2 0 6 0 9 0 2 0 0 0-4 0-5 0-7 0-4 0zm65 0c2 0 6 0 9 0 2 0 0 0-4 0-5 0-7 0-4 0zm32 0c2 0 6 0 9 0 2 0 0 0-4 0-5 0-7 0-4 0zm-162-12c2 0 6 0 9 0 2 0 0 0-4 0-5 0-7 0-4 0zm33 0c2 0 6 0 9 0 2 0 0 0-4 0-5 0-7 0-4 0zm97 0c2 0 6 0 9 0 2 0 0 0-4 0-5 0-7 0-4 0zm32 0c2 0 6 0 9 0 2 0 0 0-4 0-5 0-7 0-4 0zm234 441 0-81-127 0-127 0 0 33 0 33 4 0c10 0 24 4 37 10 7 3 23 15 23 17 0 1-14 15-31 33-26 26-31 32-31 34l0 3 127 0 127 0 0-81zm35-18 0-99-144 0-144 0 0 16 0 16 128 0 128 0 0 83 0 83 16 0 16 0 0-99zm49 0 0-99-16 0-16 0 0 100 0 100 17 0 17 0 0-99zm596 83c0-2 0-1 0 4 0 4 0 6 0 4 0-2 0-6 0-8zm-875-53c0-1-13 12-30 29-16 16-30 30-30 31 0 1 14-12 30-29 17-16 30-30 30-31zm875 36c0-2 0 0 0 4 0 5 0 7 0 4 0-2 0-6 0-8zm-548-2c0 0-1 1-3 2-2 2-3 3-3 3 0 0 1-1 3-2 2-2 3-3 3-3zm18-18c0 0-4 3-8 8-5 5-8 9-8 9 0 0 4-3 9-8 5-5 9-9 9-9zm530 3c0-2 0 0 0 4 0 5 0 7 0 4 0-2 0-6 0-8zm0-17c0-2 0 0 0 4 0 5 0 7 0 4 0-2 0-6 0-8zm-538 1c-5-5-8-9-9-8 0 0 16 17 17 17 0 0-3-4-8-9zm538-18c0-2 0 0 0 4 0 5 0 7 0 4 0-2 0-6 0-8zm-550 6c-1-1-3-2-3-2-1 0 0 1 2 3 2 2 3 3 3 2 0 0-1-2-2-3zm550-23c0-2 0 0 0 4 0 5 0 7 0 4 0-2 0-6 0-8zm0-17c0-2 0 0 0 4 0 5 0 7 0 4 0-2 0-6 0-8zm-530-22c-1-1-23 22-23 23 0 1 5-4 12-11 7-7 12-12 11-12zm530 6c0-2 0-1 0 4 0 4 0 6 0 4 0-2 0-6 0-8zm0-17c0-2 0 0 0 4 0 5 0 7 0 4 0-2 0-6 0-8zm-538-2c-4-4-8-8-8-8 0 0 3 4 7 8 4 4 8 8 8 8 0 0-3-4-7-8zm538-15c0-2 0 0 0 4 0 5 0 7 0 4 0-2 0-6 0-8zm-550 3c-2-2-3-3-3-3 0 0 1 1 2 3 2 2 3 3 3 3 0 0-1-1-2-3zm550-20c0-2 0 0 0 4 0 5 0 7 0 4 0-2 0-6 0-8zm0-9c0-1 0 0 0 2 0 2 0 3 0 2 0-1 0-3 0-3zm680-9 0-6-14 0c-19 0-18-2 0-3 14 0 14 0 15-2 1-2 1-2 2 0 1 2 5 2 43 2l42 0 0-187c0-103 0-272 0-374l0-187-382 0-382 0 0 228c0 126 0 294 0 375l0 146 52 0c48 0 52 0 53-2 1-2 1-2 2 1 1 3-1 2 22 3 12 0 19 1 19 1 0 1-7 1-19 1-10 0-20 0-20 0-1 0-1 2-1 6l0 6 285 0 285 0 0-6zm-514-7c0-1 0-1 1-1 3-1 82 0 82 1 0 1-82 2-83 0zm97 0c0-1 0-1 1-1 3-1 82 0 82 1 0 1-82 2-83 0zm98 0c0-1 8-1 42-1 34 0 42 0 42 1 0 1-8 1-41 1-34 0-41 0-41-1zm97 0c0-1 0-1 1-1 3-1 82 0 82 1 0 1-82 2-83 0zm97 0c0-1 0-1 1-1 3-1 82 0 82 1 0 1-82 2-83 0zm-447-15c-1-3 0-33 1-33 1 0 2 33 1 34-1 1-1 1-2 0zm573 0c-1-3 0-33 1-33 1 0 2 33 1 34-1 1-1 1-2 0zm-573-48c-1-3 0-33 1-33 1 0 2 33 1 34-1 1-1 1-2 0zm573 0c-1-3 0-33 1-33 1 0 2 33 1 34-1 1-1 1-2 0zm-573-49c-1-3 0-33 1-33 1 0 2 33 1 34-1 1-1 1-2 0zm573 0c-1-3 0-33 1-33 1 0 2 33 1 34-1 1-1 1-2 0zm-574-65c0-14 0-17 2-17 1 0 2 3 2 17 0 14 0 17-1 17-1 0-1-3-1-17zm573 0c0-14 0-17 2-17 1 0 2 3 2 17 0 14 0 17-1 17-1 0-1-3-1-17zm-573-42c0-10 0-10 2-10 3 0 4 2 2 3-1 0-2 2-2 9 0 7 0 8-1 8-1 0-1-2-1-10zm573 2 0-8-14 0c-20 0-18-2 2-2l15 0 0 10c0 8 0 10-1 10-1 0-2-2-2-8zm-562-10c0-1 0-1 1-2 3-1 33 0 33 1 0 1-33 2-34 1zm48 0c0-1 0-1 1-2 3-1 33 0 33 1 0 1-33 2-34 1zm49 0c0-1 0-1 1-2 3-1 33 0 33 1 0 1-33 2-34 1zm48 0c-2-2 2-2 17-2 14 0 17 0 17 2 0 1-3 2-17 2-9 0-17 0-17-1zm49 0c0-1 0-1 1-2 3-1 33 0 33 1 0 1-33 2-34 1zm48-1c0-1 3-1 17-1 14 0 17 0 17 2 0 1-3 2-17 2-14 0-17 0-17-1zm49 0c0-1 3-1 17-1 14 0 17 0 17 2 0 1-3 2-17 2-14 0-17 0-17-1zm49 1c0-1 0-1 1-2 3-1 33 0 33 1 0 1-33 2-34 1zm49 0c0-1 0-1 1-2 3-1 33 0 33 1 0 1-33 2-34 1zm48 0c0-1 0-1 1-2 3-1 33 0 33 1 0 1-33 2-34 1zm49 0c0-1 0-1 1-2 3-1 33 0 33 1 0 1-33 2-34 1zm181 72 0-167-6 0-6 0 0 161 0 162-44 0-44 0 0 6 0 6 51 0 51 0 0-168zM718 1001l0-30-88 0-88 0 0 30 0 30 88 0 88 0 0-29zm-147 22c-8-4-12-7-14-13-3-7-3-10-1-17 3-9 13-15 26-16 14-1 25 4 31 13 3 5 3 16 1 21-2 4-8 9-14 12-8 3-20 3-28 0zm28-2c9-5 14-11 14-20 0-5 0-7-3-10-8-12-27-16-42-8-7 4-9 6-12 14-1 5-2 6 0 9 3 8 6 11 13 15 7 3 8 4 16 3 7 0 10-1 13-3zm-23-2c-6-2-12-6-15-10-4-7-1-17 6-22 5-3 13-6 18-6 6 0 18 5 21 10 3 3 3 4 2 10 0 6-1 7-4 10-7 7-19 10-29 7zm20-4c8-3 10-7 11-14 0-5 0-6-2-9-1-2-6-5-10-6-10-4-15-4-27 3-3 2-7 8-7 13 0 7 6 13 16 15 6 2 13 1 19-2zm-16-11c-1-1-1-2 1-3 2-2 3-2 5 0 1 1 2 2 1 4-1 3-5 3-7 0zm79 18c-14-6-20-19-14-32 4-8 16-15 28-15 17 0 30 10 31 23 0 11-4 17-16 23-5 2-7 3-15 3-7 0-10-1-14-3zm29-2c10-5 15-11 15-20 0-19-28-29-47-17-10 7-13 18-7 26 4 6 6 8 13 10 9 4 19 3 27 0zm-22-2c-14-4-20-14-16-24 3-8 16-15 27-14 8 1 18 6 21 12 4 8 2 17-6 21-8 5-18 7-26 4zm14-2c19-5 24-20 9-29-9-5-15-6-24-3-11 4-16 11-14 19 2 6 7 10 16 13 5 2 8 2 13 0zm-9-13c-1-2-1-2 1-4 3-3 6-1 5 3 0 3-4 4-6 1zm64 25c-3-1-3-23 0-26 2-2 4-2 31-2 36 0 33-1 33 14 0 8 0 11-2 13l-2 2 12 0 12 0 0-88 0-87-28 0-28 0-31 31c-17 17-32 31-33 31-2 0-12-12-17-22-5-10-10-25-10-34l0-6-66 0-66 0 0 3c0 3 3 6 32 35 22 22 31 32 31 33 0 1-3 3-6 6-14 11-28 17-46 20l-10 2 0 7 0 7 89 0 89 0 0 31 0 31 8 0c6 0 7 0 6-1zm21-31c-8-5-14-19-12-29 2-8 4-12 7-15 13-13 30-7 35 13 4 12-3 29-12 33-5 2-14 2-18-1zm17-2c5-3 10-11 11-18 2-14-8-28-19-28-4 0-10 3-14 7-4 5-7 15-5 22 2 8 7 16 12 18 3 1 12 1 14-1zm89 34c5-1 3-2-5-3-9-1-11-2-18-7-3-2-5-4-6-9-2-6-2-7-2-68 0-62 0-62 2-67 3-6 11-14 17-17 11-5 29-5 41 1 5 2 7 4 11 9 8 11 8 8 8 76 0 67 0 66-7 73-5 5-10 7-19 8-4 0-8 1-8 1 0 1 7 2 24 2l16 0 0-88 0-88-46 0-46 0 0 88 0 88 18 0c10 0 19 0 21-1zm10-1c0-1-1-1-1-1-1 0-1 0-1 1 0 1 1 1 2 1 1 0 2 0 2-1zm-78-2c2-2 2-19 0-21-1-1-9-1-28-1-15 0-28 0-29 1-1 1-2 2-1 11 0 6 1 11 1 11 1 1 8 1 28 1 23 0 28 0 29-2zm71-6c0-2 1-5 1-8l0-5 4 0 4 0 0 8 0 8 8-1c9-1 12-2 17-7 6-6 6-6 6-74 0-58 0-61-2-64-8-15-17-19-35-19-11 0-11 0-18 3-7 3-12 9-15 16-2 4-2 7-2 67 0 72 0 68 9 74 5 3 9 5 17 5 5 0 5 0 6-3zm1-17c-1-2 1-5 2-5 1 0 2 0 3 1 2 1 2 2 1 3-1 2-5 3-6 1zm6 14c0-6 0-7-1-7-1 0-2 1-2 3 0 2 0 5-1 7-1 3 0 4 2 4 2 0 2-1 2-7zm-300-122c-16-16-30-30-30-29 0 0 13 14 29 30 16 16 30 30 30 29 0 0-13-14-29-30zm-146-9c-18-18-33-32-33-32-1 0 14 15 31 33 18 18 33 33 33 33 1 0-14-15-31-32zm307-2c17-17 30-30 29-30-1 0-15 14-31 31-17 17-30 31-29 31 1 0 15-14 31-30zm-194-28 0-4 68 0 68 0 0-4 0-4-94 0-94 0 0 4 0 4 23 0 23 0 0 5c0 4 0 5 4 5 3 0 4 0 4-4zm-173-32 0-16-114 0-114 0 0 16 0 16 115 0 115 0 0-16zm0-53 0-34-13 0c-12 0-27-2-18-2l4 0-16-16-16-16-16 16c-16 15-16 16-18 14-3-2-3-4 0-6l2-2-4-1-4-1 5 0c4 0 5 0 17-13 12-12 13-13 17-13 4 0 5 1 17 13l13 13 26 0 26 0 1-7c1-17 8-35 20-51 9-12 5-15 43 24 31 32 34 34 37 34l4 0 0-219 0-219-177 0-177 0 0 219 0 219 15 0 15 0 13-13c18-17 16-18 37 3 9 9 16 16 16 17 0 1-1 2-2 3-2 2-2 2-7-3l-5-5-8 0-8 0 7-1 7-1-10-10-10-10-10 10-10 10 5 1 5 1-6 0c-6 0-6 0-11 6-3 3-5 6-5 6 0 0-6 1-14 1l-14 0 0 34 0 34 115 0 115 0 0-34zm-192-36c2 0 6 0 9 0 3 0 1 0-4 0-5 0-7 0-5 0zm33 0c2 0 6 0 9 0 2 0 0 0-4 0-5 0-7 0-4 0zm32 0c2 0 6 0 9 0 2 0 0 0-4 0-5 0-7 0-4 0zm33 0c2 0 6 0 9 0 2 0 0 0-4 0-5 0-7 0-4 0zm32 0c2 0 6 0 9 0 2 0 0 0-4 0-5 0-7 0-4 0zm-65-12c2 0 6 0 9 0 2 0 0 0-4 0-5 0-7 0-4 0zm65 0c2 0 6 0 9 0 2 0 0 0-4 0-5 0-7 0-4 0zm1156 51c1-1 1-1 1 0 0 1 2 1 8 1l8 0 0-45 0-45-6 0c-3 0-6 0-5 1 0 1-1 2-2 4-1 2-3 4-3 5 0 2 0 2-1 1-1-1-7 4-31 28l-30 30 4 3c5 4 18 11 27 14 6 2 19 5 25 5 3 0 4 0 5-2zm0-22c0-5 0-7 0-5 0 2 0 6 0 9 0 3 0 1 0-4zm0-32c0-5 0-7 0-4 0 2 0 6 0 9 0 2 0 0 0-4zm-798 34c-10-10-18-17-18-17-1 0 7 8 16 18 10 10 18 17 18 17 1 0-7-8-16-17zm22 10c6-9 11-28 7-28-2 0-2 0 0-1 1 0 2-2 2-6 0-4 0-5-2-5-4 0 2-2 7-2l4 0 0-16 0-16-34 0-34 0 0 17 0 17 4 0c2 0 5 0 6 1 1 1 1 1 0 1-1 0-1 1-1 3 0 2 3 6 19 22 11 11 19 19 19 19 0 0 1-2 3-4zm-24-28c2 0 6 0 9 0 3 0 1 0-4 0-5 0-7 0-5 0zm0-12c2 0 6 0 9 0 3 0 1 0-4 0-5 0-7 0-5 0zm800-37c0-1-14 13-32 30-18 18-32 33-32 33 0 1 14-13 32-30 18-18 32-33 32-33zm-461-115 0-163-4 0-4 0 0 158 0 158-57 0-57 0 0 4 0 4 61 0 61 0 0-163zm-486 159c0-3 0-3-5-4l-5 0 0-223 0-223 63 0 63 0 0-5 0-5-129 0-129 0 0 5 0 5 63 0 63 0 0 223 0 223-5 0c-5 0-5 0-5 4l0 3 14 0 14 0 0-3zm125 0c0-3 0-3-4-3l-4 0 0-38 0-38 38 0 38 0 0 38 0 38-4 0c-4 0-4 0-4 4l0 3 88 0 88 0 0-227 0-227 6 0 6 0 0-5 0-5-72 0-72 0 0 5 0 5 62 0 62 0 0 181 0 181-11 0-11 0 0 4 0 4 11 0 11 0 0 38 0 38-76 0-76 0 0-38 0-38 11 0 11 0 0-4 0-4-56 0-56 0 0 42 0 42-4 0c-4 0-4 0-4 4l0 3 13 0 13 0 0-3zm-467-5c0 0-1 1-3 2-2 2-3 3-3 3 0 0 1-1 3-2 2-2 3-3 3-3zm44-10c-8-8-15-14-15-14 0 0 6 7 14 15 8 8 15 14 15 14 0 0-6-7-14-15zm64 13c2-2 2-3 2-3-1 0-2 1-4 3-2 2-2 3-2 3 1 0 2-1 4-3zm58 0c-2-2-3-3-3-3 0 0 1 1 2 3 2 2 3 3 3 3 0 0-1-1-2-3zm-141-27c0 0-5 5-11 11-6 6-11 12-11 12 0 0 5-5 12-11 6-6 12-12 12-12zm98 12c6-6 11-11 10-11 0 0-6 5-12 11-6 6-11 11-10 11 1 0 6-5 12-11zm28-1c-6-6-12-11-12-11 0 0 5 5 11 12 6 6 12 12 12 12 0 0-5-5-11-11zm140-9c-27-28-44-45-44-44 0 1 63 64 64 64 0 0-9-9-20-21zm90-11c18-18 32-32 31-32 0 0-15 14-33 32-18 18-32 32-31 32 1 0 15-14 33-32zm-3-3c18-18 34-33 35-33 1 0 13 14 14 18 0 1 2 4 3 6 5 9 10 27 10 37 0 6 0 6 3 6l3 0 0-42 0-42 59 0c52 0 60 0 61 1 1 1 2 2 1 2-1 0-1 2-1 5 0 3 0 5 1 5 1 0 0 1-1 1-1 1-5 1-12 2l-10 0 0 16 0 16 73 0 73 0 0-16 0-16-10 0c-7 0-10 0-12-1-1-1-1-1-1-1 1 0-1-2-4-5-5-5-5-5-12-5l-6 0 6-1 6-1-14-13-14-13-19 19c-10 10-19 19-20 19-1 0-2-1-2-2-1-2-1-3 0-4 2-2 2-2-3-2l-5 0 6 0 6 0 16-16 16-16 5 0 5 0 17 17c13 13 17 16 18 15 1-1 5-1 11-1l10 0 0-177 0-177-177 0-177 0 0 219 0 219 4 0c4 0 5-1 37-33zm210-37c2 0 6 0 9 0 2 0 0 0-4 0-5 0-7 0-4 0zm32 0c2 0 6 0 9 0 2 0 0 0-4 0-5 0-7 0-4 0zm32 0c2 0 6 0 9 0 3 0 1 0-4 0-5 0-7 0-5 0zm-32-11c2 0 6 0 9 0 2 0 0 0-4 0-5 0-7 0-4 0zm72 65 0-16-72 0-72 0 0 17 0 17 73 0 73 0 0-16zm126 4 0-12-20 0c-17 0-20 0-20-1 0-1 3-1 20-1l20 0 0-13 0-13-20 0c-17 0-20 0-20-1 0-1 3-1 20-1l20 0 0-12 0-12-20 0c-17 0-20 0-20-1 0-1 3-1 20-1l20 0 0-12 0-12-20 0c-17 0-20 0-20-1 0-1 3-1 20-1l20 0 0-12 0-12-20 0c-17 0-20 0-20-1 0-1 3-1 20-1l20 0 0-12 0-12-20 0c-17 0-20 0-20-1 0-1 3-2 20-2l20 0 0-13 0-13-20 0c-17 0-20 0-20-1 0-1 3-1 20-1l20 0 0-12 0-12-20 0c-17 0-20 0-20-1 0-1 3-1 20-1l20 0 0-12 0-12-20 0c-17 0-20 0-20-1 0-1 3-1 20-1l20 0 0-12 0-12-20 0c-17 0-20 0-20-1 0-1 3-1 20-1l20 0 0-12 0-12-55 0-55 0 0 13 0 13 20 0c17 0 20 0 20 2 0 1-3 2-19 2l-19 0 0 13 0 13 20 0c17 0 20 0 20 2 0 1-3 2-19 2l-19 0 0 13 0 13 20 0c17 0 20 0 20 2 0 1-3 2-19 2l-19 0 0 13 0 13 20 0c17 0 20 0 20 2 0 1-3 2-19 2l-19 0 0 13 0 13 20 0c17 0 20 0 20 2 0 1-3 2-19 2l-19 0 0 13 0 13 20 0c17 0 20 0 20 2 0 1-3 2-19 2l-19 0 0 13 0 13 20 0c17 0 20 0 20 2 0 1-3 2-19 2l-19 0 0 13 0 13 20 0c17 0 20 0 20 2 0 1-3 2-19 2l-19 0 0 13 0 13 20 0c17 0 20 0 20 2 0 1-3 2-19 2l-19 0 0 13 0 13 20 0c17 0 20 0 20 2 0 1-3 2-19 2l-19 0 0 13 0 13 56 0 56 0 0-12zm1283-51c0-52 0-59-1-59-1 0-1 1-1 4 0 3 0 4-2 4-4 0-4 3-4 53 0 31 0 47 1 47 1 0 1 1 1 2 0 1 1 2 2 2 2 0 2 1 2 5 0 3 0 5 2 5 1 0 2-7 2-59zm-15 0 0-48-3 0-3 0 0 48 0 48 3 0 3 0 0-48zm-1555 12 0-16-34 0-34 0 0 16 0 16 34 0 34 0 0-16zm776-190 0-200 386 0 386 0 0 162 0 162 7 0 7 0 0-167 0-167-490 0-490 0 0 5 0 5 90 0 90 0 0 190 0 190-36 0-36 0 0 4 0 4 36 0 36 0 0 6 0 6 7 0 7 0 0-200zm-92 158c0-17 0-19-1-19-1 0-1 3-1 20 0 17 0 20 2 20 1 0 2-3 2-19zm38 14c0-3 1-5 1-5 1 0 1 2 1 5l0 5 16 0 16 0 0-52 0-53-16 0-16 0 0 16c0 10-1 16-1 16-1 0-1-6-1-16l0-16-17 0-17 0 0 53 0 53 17 0 17 0 0-5zm0-21c-1-3 0-33 1-33 1 0 2 33 1 34-1 1-1 1-2 0zm-600-3c-10-10-18-18-19-18-1 0 7 8 17 18 10 10 19 18 19 18 0 0-8-9-17-18zm-56 16c1-1 2-2 1-2-1 0-2 1-3 3-1 1-2 3-1 3 1 0 2-1 3-2zm19-18c8-8 15-15 14-15-1 0-8 7-16 15-8 8-15 15-14 15 1 0 8-7 16-15zm600-41c0-27 0-32-1-32-1 0-1 4-1 32 0 27 0 32 2 32 1 0 2-4 2-31zm873 23c-2 0-4 0-6 0-2 0 0 0 3 0 3 0 5 0 3 0zm-799-92 0-34-16 0-16 0 0 3c0 2-1 3-1 3-1 0-1-1-1-3l0-3-16 0-16 0 0 35 0 35 35 0 35 0 0-34zm-35 19c-1-3 0-33 1-33 1 0 2 33 1 34-1 1-1 1-2 0zm-1-63c0-3-1-7-1-9-5-9 2-21 12-21 16 0 21 20 7 28-5 2-11 2-14 0-1-1-1 0-1 4l0 5 14 0 14 0 0-43 0-43-13 0c-11 0-13 0-13 2 0 1-1 2-1 2-1 0-1-1-1-1 0-1-2-1-16-1l-16 0 0 43 0 43 17 0 17 0 0-6zm-25-2c-4-2-6-6-6-11 0-3 1-5 3-8 3-3 4-3 8-3 8 0 12 3 13 10 1 4-1 10-5 12-4 2-10 3-13 1zm10-3c3-1 5-5 5-9 0-3-5-8-8-8-5 0-6 0-9 3-4 4-3 10 1 13 3 3 6 3 10 1zm15-29c0 0-1-8-1-17 0-13 0-16 1-18 1-1 3-3 4-4 3-4 10-5 15-2 8 4 8 17 0 21-5 2-10 2-14-2l-2-2 0 12c0 11-1 14-2 12zm19-24c6-5 3-15-6-15-6 0-9 3-9 9 0 8 9 12 15 7zm-40 11c-12-4-13-22-2-28 10-5 23 4 21 15-1 9-10 15-19 13zm11-5c3-2 5-7 5-10 0-6-6-11-13-11-12 0-15 18-4 23 4 2 7 1 11-1zm45 15c0-38 0-43-1-43-1 0-1 5-1 43 0 38 0 43 2 43 1 0 2-5 2-43zm-16 30c7-8 2-20-9-20-3 0-4 1-7 4-3 3-3 4-2 5 1 1 2 2 2 7 0 6 0 6 3 7 5 2 10 1 14-3zm-20-92c0-14 0-16 2-16 1 0 2 3 2 17l0 17 17 0 17 0 0-52 0-52-79 0-79 0 0 2c0 2 0 2 26 2l26 0 0 13c0 7 0 14 0 14 0 1 4 1 16 1 14 0 16 0 16 2 0 1-2 2-16 2-15 0-16 0-16 2 0 2 0 29 0 30 0 0 8 1 18 1l18 0 0 18 0 18 16 0 16 0 0-16zm0-42 0-10-11 0c-9 0-11 0-11-2 0-1 2-1 12-1l12 0 0 12c0 10 0 12-1 12-1 0-2-2-2-10zm-88 26c-9 0-25 0-35 0-10 0-2 0 17 0 19 0 27 0 18 0zm-53-5c0-1 0-15 0-32l0-31 8 0c7 0 8 0 8-2l0-2-74 0-74 0 0 34 0 34 67 0c52 0 67 0 67-1zm-99-1c-1 0-3-2-3-3-1-1-1-12-1-30 0-28 0-29 2-30 2-1 8-2 46-2 44 0 48 0 49 4 1 3 1 56 0 58-1 1-2 2-4 3-4 1-85 1-89 0zm88-3 3-1 0-27c0-25 0-28-1-29-1-1-6-1-14-1l-12 0 0 3c0 2 0 4-1 5-1 1 0 2 11 2 8 0 13 0 14 1 1 1 1 7 1 22 0 15 0 21-1 22-1 1-6 1-19 1-17 0-18 0-19-2-1-1-1-10-1-22 0-12 0-20 1-22 1-2 1-2-4-2-5 0-6 1-4 3 2 1 1 41 0 43-1 2-3 2-19 2-15 0-18 0-19-2-2-1-2-4-2-22 0-17 0-20 2-22 1-2 3-2 14-2 7 0 12 0 11-1-1 0-1-2-1-4l0-4-13 0c-9 0-13 0-14 1-1 1-1 9-1 29l0 28 2 1c3 2 83 2 87 0zm-49-26 0-20-16 0c-12 0-17 0-17 1-1 2-1 38 0 39 0 0 8 1 17 0l17 0 0-20zm-20 4c-4-2-4-8 0-10 5-3 11 6 6 9-3 2-3 2-5 1zm5-5c0-2-2-3-4-2-2 1-2 3 0 4 2 2 4 0 4-2zm62 2 0-20-16 0c-14 0-16 0-17 2-1 2-1 38 0 39 0 0 8 1 17 1l16 0 0-20zm-20 3c-3-1-4-5-2-8 2-3 7-3 9 0 2 2 2 5-1 7-2 2-3 2-6 1zm5-5c0-1-1-2-1-2-2-1-4 0-4 2 0 1 1 2 1 2 2 1 4 0 4-2zm-10-27c0-2-1-2-15-2-14 0-15 0-15 2 0 2 1 2 15 2 14 0 15 0 15-2zm108 59c0-2 0-60 0-61 0-2-49-1-51 0-1 1-2 1-2 0-1-1-11-2-13-1-1 0-1 55-1 61 0 0 15 1 33 1 18 0 33 0 33-1zm-43-5c0-3 0-3 3-3 1 0 3 0 3 1 0 0-1 1-2 0-2 0-2 0-2 2 0 3 1 3 3 1 1-1 1-1 1-1 0 1-2 3-4 3-1 0-1-1-1-3zm10 0c0-3 0-4 1-1 1 2 1 2 2 1 0-1 1-2 1-2 1 0 5 4 5 5 0 1-1 0-2-2l-2-3-2 3-2 3 0-4zm-2-2c0-1 0-2 1-1 0 0 0 1 0 2 0 1-1 1-1-1zM1298 316c0 0-1-3-1-7 0-5 0-6 2-6 1 0 2 1 2 5l0 5 18 0c11 0 18 1 18 1 0 1-38 2-39 1zm-375-4c-18-18-33-32-33-32 0 0 14 15 32 33 18 18 33 33 33 33 0 0-14-15-32-32zm38 25c5-7 12-20 15-30 3-8 5-25 4-27 0-1 0-4 0-7l0-6-46 0-46 0 0 4c0 4 3 8 7 8 2 0 2 0 1 1-1 0 5 7 29 31 17 17 31 31 31 31 0 0 2-2 4-5zm-42-58c2 0 6 0 9 0 2 0 0 0-4 0-5 0-7 0-4 0zm32 0c2 0 6 0 9 0 2 0 0 0-4 0-5 0-7 0-4 0zm-688-10c0-2 0 0 0 3 0 3 0 5 0 3 0-2 0-4 0-6zm99 6 0-2-48 0-48 0 0 3 0 3 48 0 48 0 0-2zm271-6c0-2 0 0 0 3 0 3 0 5 0 3 0-2 0-4 0-6zm98 6 0-2-47 0-47 0 0 3 0 3 48 0 48 0 0-2zm5-3c0-3 0-5-1-5-1 0-1 2-1 6 0 3 0 6 1 6 1 0 1-2 1-5zm440-3c0-2 0 0 0 3 0 3 0 5 0 3 0-2 0-4 0-6zm99 6 0-2-48 0-48 0 0 3 0 3 48 0 48 0 0-2zm-104-4 0-5-93 0-94 0 0 6 0 6 94 0 94 0 0-5zm-808-6c1-1 2-3 2-4 0-1 1-2 4-2 2 0 4-1 4-1 0-1-23-1-59-1-36 0-59 0-59 1 0 1 2 1 4 1 3 0 4 1 4 3 0 1 1 2 2 2 1 0 2 1 2 2 1 1 7 2 48 2 45 0 47 0 49-2zm368 0c0-1 1-1 3-1 1 0 2-1 2-2 0-2 1-2 4-3 2 0 3-1 3-1 0-1-23-1-59-1-36 0-59 0-59 1 0 1 2 1 4 1 3 0 4 1 4 3 0 1 1 2 2 2 1 0 2 1 2 2 1 1 7 2 48 2 41 0 47 0 48-1zm545 0c1-1 2-3 2-4 0-1 1-2 4-2 2 0 4-1 4-1 0-1-23-1-59-1-36 0-59 0-59 1 0 1 2 1 4 1 3 0 4 1 4 3 0 1 1 2 2 2 1 0 2 1 2 2 1 1 7 2 48 2 45 0 47 0 49-2zm-1145-2c-2 0-6 0-8 0-2 0-1 0 4 0 4 0 6 0 4 0zm16 0c-2 0-6 0-8 0-2 0 0 0 4 0 5 0 7 0 4 0zm17 0c-2 0-6 0-8 0-2 0 0 0 4 0 5 0 7 0 4 0zm17 0c-2 0-6 0-8 0-2 0 0 0 4 0 5 0 7 0 4 0zm17 0c-2 0-6 0-8 0-2 0 0 0 4 0 5 0 7 0 4 0zm17 0c-2 0-6 0-8 0-2 0 0 0 4 0 5 0 7 0 4 0zm17 0c-2 0-6 0-8 0-2 0 0 0 4 0 5 0 7 0 4 0zm17 0c-2 0-6 0-8 0-2 0 0 0 4 0 5 0 7 0 4 0zm8 0c-1 0-2 0-2 0-1 0 0 1 1 1 1 0 2 0 1-1zm127 0c-2 0-6 0-8 0-2 0 0 0 4 0 5 0 7 0 4 0zm17 0c-2 0-6 0-8 0-2 0 0 0 4 0 5 0 7 0 4 0zm17 0c-2 0-6 0-8 0-2 0-1 0 4 0 4 0 6 0 4 0zm16 0c-2 0-6 0-8 0-2 0 0 0 4 0 5 0 7 0 4 0zm17 0c-2 0-6 0-8 0-2 0 0 0 4 0 5 0 7 0 4 0zm17 0c-2 0-6 0-8 0-2 0 0 0 4 0 5 0 7 0 4 0zm17 0c-2 0-6 0-8 0-2 0 0 0 4 0 5 0 7 0 4 0zm17 0c-2 0-6 0-8 0-2 0 0 0 4 0 5 0 7 0 4 0zm17 0c-2 0-6 0-8 0-2 0 0 0 4 0 5 0 7 0 4 0zm17 0c-2 0-6 0-8 0-2 0-1 0 4 0 4 0 6 0 4 0zm17 0c-3 0-7 0-9 0-2 0 0 0 5 0 5 0 7 0 4 0zm17 0c-2 0-6 0-8 0-2 0-1 0 4 0 4 0 6 0 4 0zm16 0c-2 0-6 0-8 0-2 0 0 0 4 0 5 0 7 0 4 0zm17 0c-2 0-6 0-8 0-2 0 0 0 4 0 5 0 7 0 4 0zm17 0c-2 0-6 0-8 0-2 0 0 0 4 0 5 0 7 0 4 0zm7 0c-1 0-2 0-2 0 0 0 0 1 1 1 1 0 1 0 1-1zm115 0c-1 0-2 0-2 0 0 0 0 1 1 1 1 0 1 0 1-1zm14 0c-2 0-6 0-8 0-2 0-1 0 4 0 4 0 6 0 4 0zm16 0c-2 0-6 0-8 0-2 0 0 0 4 0 5 0 7 0 4 0zm17 0c-2 0-6 0-8 0-2 0 0 0 4 0 5 0 7 0 4 0zm17 0c-2 0-6 0-8 0-2 0-1 0 4 0 4 0 6 0 4 0zm17 0c-3 0-7 0-9 0-2 0 0 0 5 0 5 0 7 0 4 0zm17 0c-2 0-6 0-8 0-2 0-1 0 4 0 4 0 6 0 4 0zm17 0c-3 0-7 0-9 0-2 0 0 0 5 0 5 0 7 0 4 0zm17 0c-2 0-6 0-8 0-2 0-1 0 4 0 4 0 6 0 4 0zm9 0c-1 0-3 0-4 0-1 0 0 0 2 0 2 0 3 0 2 0zm109 0c-2 0-4 0-6 0-2 0 0 0 3 0 3 0 5 0 3 0zm16 0c-3 0-7 0-9 0-2 0 0 0 5 0 5 0 7 0 4 0zm17 0c-2 0-6 0-8 0-2 0-1 0 4 0 4 0 6 0 4 0zm16 0c-2 0-6 0-8 0-2 0 0 0 4 0 5 0 7 0 4 0zm17 0c-2 0-6 0-8 0-2 0 0 0 4 0 5 0 7 0 4 0zm17 0c-2 0-6 0-8 0-2 0-1 0 4 0 4 0 6 0 4 0zm17 0c-3 0-7 0-9 0-2 0 0 0 5 0 5 0 7 0 4 0zm17 0c-2 0-6 0-8 0-2 0-1 0 4 0 4 0 6 0 4 0zm17 0c-3 0-7 0-9 0-2 0 0 0 5 0 5 0 7 0 4 0zm17 0c-2 0-6 0-8 0-2 0-1 0 4 0 4 0 6 0 4 0zm16 0c-2 0-6 0-8 0-2 0 0 0 4 0 5 0 7 0 4 0zm10 0c-1 0-3 0-3 0-1 0 0 0 2 0 2 0 3 0 2 0zm126 0c-2 0-6 0-8 0-2 0-1 0 4 0 4 0 6 0 4 0zm16 0c-2 0-6 0-8 0-2 0 0 0 4 0 5 0 7 0 4 0zm17 0c-2 0-6 0-8 0-2 0 0 0 4 0 5 0 7 0 4 0zm17 0c-2 0-6 0-8 0-2 0 0 0 4 0 5 0 7 0 4 0zm17 0c-2 0-6 0-8 0-2 0 0 0 4 0 5 0 7 0 4 0zm17 0c-2 0-6 0-8 0-2 0-1 0 4 0 4 0 6 0 4 0zm17 0c-3 0-7 0-9 0-2 0 0 0 5 0 5 0 7 0 4 0zm17 0c-2 0-6 0-8 0-2 0-1 0 4 0 4 0 6 0 4 0zm16 0c-2 0-6 0-8 0-2 0 0 0 4 0 5 0 7 0 4 0zm17 0c-2 0-6 0-8 0-2 0 0 0 4 0 5 0 7 0 4 0zm17 0c-2 0-6 0-8 0-2 0 0 0 4 0 5 0 7 0 4 0zm17 0c-2 0-6 0-8 0-2 0 0 0 4 0 5 0 7 0 4 0zm17 0c-2 0-6 0-8 0-2 0 0 0 4 0 5 0 7 0 4 0zm17 0c-2 0-6 0-8 0-2 0 0 0 4 0 5 0 7 0 4 0zm17 0c-2 0-6 0-8 0-2 0-1 0 4 0 4 0 6 0 4 0zm17 0c-3 0-7 0-9 0-2 0 0 0 5 0 5 0 7 0 4 0zm17 0c-2 0-6 0-8 0-2 0-1 0 4 0 4 0 6 0 4 0zm16 0c-2 0-6 0-8 0-2 0 0 0 4 0 5 0 7 0 4 0zm17 0c-2 0-6 0-8 0-2 0 0 0 4 0 5 0 7 0 4 0zm17 0c-2 0-6 0-8 0-2 0 0 0 4 0 5 0 7 0 4 0zm17 0c-2 0-6 0-8 0-2 0 0 0 4 0 5 0 7 0 4 0zm17 0c-2 0-6 0-8 0-2 0 0 0 4 0 5 0 7 0 4 0zm17 0c-2 0-6 0-8 0-2 0 0 0 4 0 5 0 7 0 4 0zm17 0c-2 0-6 0-8 0-2 0-1 0 4 0 4 0 6 0 4 0zm16 0c-2 0-6 0-8 0-2 0 0 0 4 0 5 0 7 0 4 0zm17 0c-2 0-6 0-8 0-2 0 0 0 4 0 5 0 7 0 4 0zm17 0c-2 0-6 0-8 0-2 0 0 0 4 0 5 0 7 0 4 0zm17 0c-2 0-6 0-8 0-2 0 0 0 4 0 5 0 7 0 4 0zm17 0c-2 0-6 0-8 0-2 0 0 0 4 0 5 0 7 0 4 0zm17 0c-2 0-6 0-8 0-2 0 0 0 4 0 5 0 7 0 4 0zm17 0c-2 0-6 0-8 0-2 0 0 0 4 0 5 0 7 0 4 0zm17 0c-2 0-6 0-8 0-2 0 0 0 4 0 5 0 7 0 4 0zm17 0c-2 0-6 0-8 0-2 0 0 0 4 0 5 0 7 0 4 0zm17 0c-2 0-6 0-8 0-2 0-1 0 4 0 4 0 6 0 4 0zm16 0c-2 0-6 0-8 0-2 0 0 0 4 0 5 0 7 0 4 0zm17 0c-2 0-6 0-8 0-2 0 0 0 4 0 5 0 7 0 4 0zm17 0c-2 0-6 0-8 0-2 0 0 0 4 0 5 0 7 0 4 0zm17 0c-2 0-6 0-8 0-2 0 0 0 4 0 5 0 7 0 4 0zm17 0c-2 0-6 0-8 0-2 0 0 0 4 0 5 0 7 0 4 0zm17 0c-2 0-6 0-8 0-2 0 0 0 4 0 5 0 7 0 4 0zm17 0c-2 0-6 0-8 0-2 0-1 0 4 0 4 0 6 0 4 0zm17 0c-3 0-7 0-9 0-2 0 0 0 5 0 5 0 7 0 4 0zm17 0c-2 0-6 0-8 0-2 0-1 0 4 0 4 0 6 0 4 0zm16 0c-2 0-6 0-8 0-2 0 0 0 4 0 5 0 7 0 4 0zm17 0c-2 0-6 0-8 0-2 0 0 0 4 0 5 0 7 0 4 0zm17 0c-2 0-6 0-8 0-2 0 0 0 4 0 5 0 7 0 4 0zm17 0c-2 0-6 0-8 0-2 0 0 0 4 0 5 0 7 0 4 0zm17 0c-2 0-6 0-8 0-2 0 0 0 4 0 5 0 7 0 4 0zm17 0c-2 0-6 0-8 0-2 0 0 0 4 0 5 0 7 0 4 0zm17 0c-2 0-6 0-8 0-2 0-1 0 4 0 4 0 6 0 4 0zm17 0c-3 0-7 0-9 0-2 0 0 0 5 0 5 0 7 0 4 0zm17 0c-2 0-6 0-8 0-2 0-1 0 4 0 4 0 6 0 4 0zm16 0c-2 0-6 0-8 0-2 0 0 0 4 0 5 0 7 0 4 0zm17 0c-2 0-6 0-8 0-2 0 0 0 4 0 5 0 7 0 4 0zm17 0c-2 0-6 0-8 0-2 0 0 0 4 0 5 0 7 0 4 0zm17 0c-2 0-6 0-8 0-2 0 0 0 4 0 5 0 7 0 4 0zm17 0c-2 0-6 0-8 0-2 0-1 0 4 0 4 0 6 0 4 0zm17 0c-3 0-7 0-9 0-2 0 0 0 5 0 5 0 7 0 4 0z"/></g></svg>